solid OpenSCAD_Model
  facet normal -0.593613 -0.39664 0.700215
    outer loop
      vertex -1.96424 -1.96424 4.15735
      vertex -3.84089 -1.59095 2.77785
      vertex -2.93969 -2.93969 2.77785
    endloop
  endfacet
  facet normal -0.180744 0.908663 -0.376381
    outer loop
      vertex 0 4.15735 -2.77785
      vertex -1.87665 4.53064 -0.975451
      vertex 0 4.90393 -0.975451
    endloop
  endfacet
  facet normal 0.514717 -0.770328 0.37638
    outer loop
      vertex 2.93969 -2.93969 2.77785
      vertex 1.87665 -4.53064 0.975451
      vertex 3.4676 -3.4676 0.975451
    endloop
  endfacet
  facet normal 0.514716 -0.770328 0.376381
    outer loop
      vertex 2.93969 -2.93969 2.77785
      vertex 1.59095 -3.84089 2.77785
      vertex 1.87665 -4.53064 0.975451
    endloop
  endfacet
  facet normal 0.980785 -0.195091 0
    outer loop
      vertex 4.53064 -1.87665 0.975451
      vertex 4.53064 -1.87665 0.536838
      vertex 4.60021 -1.52687 0.975451
    endloop
  endfacet
  facet normal 0.980785 -0.19509 0
    outer loop
      vertex 4.53064 -1.87665 0.12431
      vertex 4.53064 -1.87665 -0.975451
      vertex 4.58057 -1.62564 -0.975451
    endloop
  endfacet
  facet normal 0.700214 0.139282 0.700215
    outer loop
      vertex 3.84089 1.59095 2.77785
      vertex 2.5664 1.06304 4.15735
      vertex 2.77785 0 4.15735
    endloop
  endfacet
  facet normal 0.381579 -0.075901 -0.921214
    outer loop
      vertex 2.5664 -1.06304 -4.15735
      vertex 0.975451 0 -4.90393
      vertex 2.77785 0 -4.15735
    endloop
  endfacet
  facet normal 0.593613 0.396639 0.700215
    outer loop
      vertex 3.84089 1.59095 2.77785
      vertex 1.96424 1.96424 4.15735
      vertex 2.5664 1.06304 4.15735
    endloop
  endfacet
  facet normal 0.381579 0.075901 -0.921214
    outer loop
      vertex 2.77785 0 -4.15735
      vertex 0.975451 0 -4.90393
      vertex 2.5664 1.06304 -4.15735
    endloop
  endfacet
  facet normal 0.396639 0.593613 0.700215
    outer loop
      vertex 1.59095 3.84089 2.77785
      vertex 1.06304 2.5664 4.15735
      vertex 1.96424 1.96424 4.15735
    endloop
  endfacet
  facet normal -0.908663 -0.180745 0.376381
    outer loop
      vertex -4.15735 0 2.77785
      vertex -4.53064 -1.87665 0.975451
      vertex -3.84089 -1.59095 2.77785
    endloop
  endfacet
  facet normal 0.700214 0.139281 0.700214
    outer loop
      vertex 3.84089 1.59095 2.77785
      vertex 2.77785 0 4.15735
      vertex 4.15735 0 2.77785
    endloop
  endfacet
  facet normal -0.180745 -0.908663 -0.376381
    outer loop
      vertex 0 -4.15735 -2.77785
      vertex -1.87665 -4.53064 -0.975451
      vertex -1.59095 -3.84089 -2.77785
    endloop
  endfacet
  facet normal -0.908663 0.180745 0.376381
    outer loop
      vertex -3.84089 1.59095 2.77785
      vertex -4.53064 1.87665 0.975451
      vertex -4.15735 0 2.77785
    endloop
  endfacet
  facet normal -0.593613 -0.396639 0.700215
    outer loop
      vertex -2.5664 -1.06304 4.15735
      vertex -3.84089 -1.59095 2.77785
      vertex -1.96424 -1.96424 4.15735
    endloop
  endfacet
  facet normal -0.593613 -0.39664 -0.700215
    outer loop
      vertex -2.93969 -2.93969 -2.77785
      vertex -3.84089 -1.59095 -2.77785
      vertex -1.96424 -1.96424 -4.15735
    endloop
  endfacet
  facet normal 0.83147 -0.55557 0
    outer loop
      vertex 4.53064 -1.87665 0.975451
      vertex 4.48172 -1.94986 0.445042
      vertex 4.53064 -1.87665 0.536838
    endloop
  endfacet
  facet normal 0.83147 -0.55557 1.1447e-07
    outer loop
      vertex 4.48172 -1.94986 0.445042
      vertex 4.53064 -1.87665 0.975451
      vertex 3.4676 -3.4676 0.975451
    endloop
  endfacet
  facet normal 0.831469 -0.55557 -2.15636e-07
    outer loop
      vertex 3.4676 -3.4676 0.975451
      vertex 4.53064 -1.87665 0.12431
      vertex 4.48172 -1.94986 0.445042
    endloop
  endfacet
  facet normal 0.83147 -0.55557 0
    outer loop
      vertex 4.53064 -1.87665 0.12431
      vertex 3.4676 -3.4676 0.975451
      vertex 3.4676 -3.4676 -0.975451
    endloop
  endfacet
  facet normal 0.83147 -0.55557 0
    outer loop
      vertex 4.53064 -1.87665 0.12431
      vertex 3.4676 -3.4676 -0.975451
      vertex 4.53064 -1.87665 -0.975451
    endloop
  endfacet
  facet normal -0.39664 -0.593613 -0.700215
    outer loop
      vertex -1.59095 -3.84089 -2.77785
      vertex -2.93969 -2.93969 -2.77785
      vertex -1.96424 -1.96424 -4.15735
    endloop
  endfacet
  facet normal -0.381579 -0.075901 0.921214
    outer loop
      vertex -0.975451 0 4.90393
      vertex -2.77785 0 4.15735
      vertex -2.5664 -1.06304 4.15735
    endloop
  endfacet
  facet normal 0.908663 -0.180745 0.376381
    outer loop
      vertex 4.15735 0 2.77785
      vertex 4.38897 -0.867767 1.80194
      vertex 4.56158 0 1.80194
    endloop
  endfacet
  facet normal 0.908663 -0.180745 0.376381
    outer loop
      vertex 4.38897 -0.867767 1.80194
      vertex 4.53064 -1.87665 0.975451
      vertex 4.60021 -1.52687 0.975451
    endloop
  endfacet
  facet normal 0.908664 -0.180744 0.37638
    outer loop
      vertex 4.53064 -1.87665 0.975451
      vertex 4.38897 -0.867767 1.80194
      vertex 4.15735 0 2.77785
    endloop
  endfacet
  facet normal -0.980785 -0.19509 0
    outer loop
      vertex -4.53064 -1.87665 -0.975451
      vertex -4.90393 0 0.975451
      vertex -4.90393 0 -0.975451
    endloop
  endfacet
  facet normal -0.980785 -0.19509 0
    outer loop
      vertex -4.90393 0 0.975451
      vertex -4.53064 -1.87665 -0.975451
      vertex -4.53064 -1.87665 0.975451
    endloop
  endfacet
  facet normal -0.180744 -0.908663 0.376381
    outer loop
      vertex 0 -4.15735 2.77785
      vertex -1.87665 -4.53064 0.975451
      vertex 0 -4.90393 0.975451
    endloop
  endfacet
  facet normal 0.381579 -0.075901 0.921214
    outer loop
      vertex 2.77785 0 4.15735
      vertex 0.975451 0 4.90393
      vertex 2.5664 -1.06304 4.15735
    endloop
  endfacet
  facet normal -0.980785 0.19509 0
    outer loop
      vertex -4.90393 0 -0.975451
      vertex -4.53064 1.87665 0.975451
      vertex -4.53064 1.87665 -0.975451
    endloop
  endfacet
  facet normal -0.980785 0.19509 0
    outer loop
      vertex -4.53064 1.87665 0.975451
      vertex -4.90393 0 -0.975451
      vertex -4.90393 0 0.975451
    endloop
  endfacet
  facet normal -0.770328 0.514717 0.37638
    outer loop
      vertex -3.4676 3.4676 0.975451
      vertex -4.53064 1.87665 0.975451
      vertex -2.93969 2.93969 2.77785
    endloop
  endfacet
  facet normal 0.323487 -0.216148 -0.921215
    outer loop
      vertex 1.96424 -1.96424 -4.15735
      vertex 0.689748 -0.689748 -4.90393
      vertex 0.901199 -0.373289 -4.90393
    endloop
  endfacet
  facet normal 0.139281 -0.700214 -0.700214
    outer loop
      vertex 1.59095 -3.84089 -2.77785
      vertex 0 -4.15735 -2.77785
      vertex 0 -2.77785 -4.15735
    endloop
  endfacet
  facet normal -0.180744 -0.908663 -0.376381
    outer loop
      vertex 0 -4.90393 -0.975451
      vertex -1.87665 -4.53064 -0.975451
      vertex 0 -4.15735 -2.77785
    endloop
  endfacet
  facet normal -0.593613 0.396639 -0.700215
    outer loop
      vertex -2.5664 1.06304 -4.15735
      vertex -3.84089 1.59095 -2.77785
      vertex -1.96424 1.96424 -4.15735
    endloop
  endfacet
  facet normal 0.39664 0.593613 0.700215
    outer loop
      vertex 2.93969 2.93969 2.77785
      vertex 1.59095 3.84089 2.77785
      vertex 1.96424 1.96424 4.15735
    endloop
  endfacet
  facet normal -0.700214 0.139281 0.700214
    outer loop
      vertex -3.84089 1.59095 2.77785
      vertex -4.15735 0 2.77785
      vertex -2.77785 0 4.15735
    endloop
  endfacet
  facet normal -0.514716 0.770328 -0.376381
    outer loop
      vertex -1.59095 3.84089 -2.77785
      vertex -2.93969 2.93969 -2.77785
      vertex -1.87665 4.53064 -0.975451
    endloop
  endfacet
  facet normal 0.216148 0.323487 0.921215
    outer loop
      vertex 1.96424 1.96424 4.15735
      vertex 0.373289 0.901199 4.90393
      vertex 0.689748 0.689748 4.90393
    endloop
  endfacet
  facet normal 0.323488 0.216147 0.921214
    outer loop
      vertex 1.96424 1.96424 4.15735
      vertex 0.901199 0.373289 4.90393
      vertex 2.5664 1.06304 4.15735
    endloop
  endfacet
  facet normal 0.323487 0.216148 0.921215
    outer loop
      vertex 1.96424 1.96424 4.15735
      vertex 0.689748 0.689748 4.90393
      vertex 0.901199 0.373289 4.90393
    endloop
  endfacet
  facet normal 0.770328 0.514716 0.376381
    outer loop
      vertex 4.53064 1.87665 0.975451
      vertex 2.93969 2.93969 2.77785
      vertex 3.84089 1.59095 2.77785
    endloop
  endfacet
  facet normal 0.908664 0.180744 -0.37638
    outer loop
      vertex 4.48042 1.56366 -1.24698
      vertex 4.53064 1.87665 -0.975451
      vertex 4.58057 1.62564 -0.975451
    endloop
  endfacet
  facet normal 0.908661 0.180749 -0.376384
    outer loop
      vertex 4.48042 1.56366 -1.24698
      vertex 4.15735 0 -2.77785
      vertex 4.53064 1.87665 -0.975451
    endloop
  endfacet
  facet normal 0.908663 0.180745 -0.376381
    outer loop
      vertex 4.48012 1.03208 -1.50297
      vertex 4.15735 0 -2.77785
      vertex 4.48042 1.56366 -1.24698
    endloop
  endfacet
  facet normal 0.908664 0.180744 -0.37638
    outer loop
      vertex 4.15735 0 -2.77785
      vertex 4.48012 1.03208 -1.50297
      vertex 4.47954 0 -2
    endloop
  endfacet
  facet normal -0.908663 0.180744 -0.376381
    outer loop
      vertex -4.15735 0 -2.77785
      vertex -4.90393 0 -0.975451
      vertex -4.53064 1.87665 -0.975451
    endloop
  endfacet
  facet normal 0.075901 0.381579 -0.921214
    outer loop
      vertex 1.06304 2.5664 -4.15735
      vertex 0 0.975451 -4.90393
      vertex 0 2.77785 -4.15735
    endloop
  endfacet
  facet normal 0.593613 -0.396639 0.700215
    outer loop
      vertex 2.5664 -1.06304 4.15735
      vertex 1.96424 -1.96424 4.15735
      vertex 3.84089 -1.59095 2.77785
    endloop
  endfacet
  facet normal -0.323488 -0.216147 0.921214
    outer loop
      vertex -0.901199 -0.373289 4.90393
      vertex -2.5664 -1.06304 4.15735
      vertex -1.96424 -1.96424 4.15735
    endloop
  endfacet
  facet normal 0.908663 0.180745 0.376381
    outer loop
      vertex 4.53064 1.87665 0.975451
      vertex 4.38897 0.867767 1.80194
      vertex 4.60021 1.52687 0.975451
    endloop
  endfacet
  facet normal 0.908664 0.180744 0.37638
    outer loop
      vertex 4.15735 0 2.77785
      vertex 4.38897 0.867767 1.80194
      vertex 4.53064 1.87665 0.975451
    endloop
  endfacet
  facet normal 0.908663 0.180745 0.376381
    outer loop
      vertex 4.38897 0.867767 1.80194
      vertex 4.15735 0 2.77785
      vertex 4.56158 0 1.80194
    endloop
  endfacet
  facet normal 0.908663 0.180745 0.376381
    outer loop
      vertex 4.53064 1.87665 0.975451
      vertex 3.84089 1.59095 2.77785
      vertex 4.15735 0 2.77785
    endloop
  endfacet
  facet normal 0.770328 0.514717 -0.37638
    outer loop
      vertex 4.53064 1.87665 -0.975451
      vertex 2.93969 2.93969 -2.77785
      vertex 3.4676 3.4676 -0.975451
    endloop
  endfacet
  facet normal 0.770328 -0.514717 -0.37638
    outer loop
      vertex 3.4676 -3.4676 -0.975451
      vertex 2.93969 -2.93969 -2.77785
      vertex 4.53064 -1.87665 -0.975451
    endloop
  endfacet
  facet normal 0.396639 -0.593613 -0.700215
    outer loop
      vertex 1.59095 -3.84089 -2.77785
      vertex 1.06304 -2.5664 -4.15735
      vertex 1.96424 -1.96424 -4.15735
    endloop
  endfacet
  facet normal 0.323488 -0.216147 -0.921214
    outer loop
      vertex 1.96424 -1.96424 -4.15735
      vertex 0.901199 -0.373289 -4.90393
      vertex 2.5664 -1.06304 -4.15735
    endloop
  endfacet
  facet normal -0.381579 -0.075901 -0.921214
    outer loop
      vertex -2.5664 -1.06304 -4.15735
      vertex -2.77785 0 -4.15735
      vertex -0.975451 0 -4.90393
    endloop
  endfacet
  facet normal -0.908663 0.180745 -0.376381
    outer loop
      vertex -4.15735 0 -2.77785
      vertex -4.53064 1.87665 -0.975451
      vertex -3.84089 1.59095 -2.77785
    endloop
  endfacet
  facet normal -0.55557 -0.83147 0
    outer loop
      vertex -3.4676 -3.4676 -0.975451
      vertex -1.87665 -4.53064 0.975451
      vertex -3.4676 -3.4676 0.975451
    endloop
  endfacet
  facet normal -0.55557 -0.83147 -0
    outer loop
      vertex -1.87665 -4.53064 0.975451
      vertex -3.4676 -3.4676 -0.975451
      vertex -1.87665 -4.53064 -0.975451
    endloop
  endfacet
  facet normal -0.700214 -0.139282 0.700215
    outer loop
      vertex -2.77785 0 4.15735
      vertex -3.84089 -1.59095 2.77785
      vertex -2.5664 -1.06304 4.15735
    endloop
  endfacet
  facet normal -0.700214 -0.139281 0.700214
    outer loop
      vertex -2.77785 0 4.15735
      vertex -4.15735 0 2.77785
      vertex -3.84089 -1.59095 2.77785
    endloop
  endfacet
  facet normal -0.381579 -0.0759012 -0.921215
    outer loop
      vertex -0.901199 -0.373289 -4.90393
      vertex -2.5664 -1.06304 -4.15735
      vertex -0.975451 0 -4.90393
    endloop
  endfacet
  facet normal -0.139281 -0.700214 -0.700214
    outer loop
      vertex 0 -4.15735 -2.77785
      vertex -1.59095 -3.84089 -2.77785
      vertex 0 -2.77785 -4.15735
    endloop
  endfacet
  facet normal -0.381579 -0.0759012 0.921215
    outer loop
      vertex -0.975451 0 4.90393
      vertex -2.5664 -1.06304 4.15735
      vertex -0.901199 -0.373289 4.90393
    endloop
  endfacet
  facet normal 0.139282 0.700214 0.700215
    outer loop
      vertex 1.59095 3.84089 2.77785
      vertex 0 2.77785 4.15735
      vertex 1.06304 2.5664 4.15735
    endloop
  endfacet
  facet normal 0.593613 0.39664 0.700215
    outer loop
      vertex 2.93969 2.93969 2.77785
      vertex 1.96424 1.96424 4.15735
      vertex 3.84089 1.59095 2.77785
    endloop
  endfacet
  facet normal 0.139281 0.700214 0.700214
    outer loop
      vertex 0 4.15735 2.77785
      vertex 0 2.77785 4.15735
      vertex 1.59095 3.84089 2.77785
    endloop
  endfacet
  facet normal 0.19509 0.980785 -5.06384e-07
    outer loop
      vertex 1.87665 4.53064 0.975451
      vertex 0.309016 4.84246 0.951056
      vertex 0 4.90393 0.975451
    endloop
  endfacet
  facet normal 0.19509 0.980785 -2.22251e-07
    outer loop
      vertex 1.87665 4.53064 0.975451
      vertex 1 4.70501 0
      vertex 0.309016 4.84246 0.951056
    endloop
  endfacet
  facet normal 0.19509 0.980785 -0
    outer loop
      vertex 1.87665 4.53064 -0.975451
      vertex 1 4.70501 0
      vertex 1.87665 4.53064 0.975451
    endloop
  endfacet
  facet normal 0.19509 0.980785 2.22251e-07
    outer loop
      vertex 1 4.70501 0
      vertex 1.87665 4.53064 -0.975451
      vertex 0.309016 4.84246 -0.951056
    endloop
  endfacet
  facet normal 0.19509 0.980785 0
    outer loop
      vertex 0 4.90393 0.975451
      vertex 0.309016 4.84246 0.951056
      vertex 0 4.90393 0.850651
    endloop
  endfacet
  facet normal 0.19509 0.980785 0
    outer loop
      vertex 0.309016 4.84246 -0.951056
      vertex 0 4.90393 -0.975451
      vertex 0 4.90393 -0.850651
    endloop
  endfacet
  facet normal 0.19509 0.980785 5.06384e-07
    outer loop
      vertex 0 4.90393 -0.975451
      vertex 0.309016 4.84246 -0.951056
      vertex 1.87665 4.53064 -0.975451
    endloop
  endfacet
  facet normal 0.180744 0.908663 -0.376381
    outer loop
      vertex 1.87665 4.53064 -0.975451
      vertex 0 4.15735 -2.77785
      vertex 0 4.90393 -0.975451
    endloop
  endfacet
  facet normal -0.0759012 0.381579 -0.921215
    outer loop
      vertex -0.373289 0.901199 -4.90393
      vertex -1.06304 2.5664 -4.15735
      vertex 0 0.975451 -4.90393
    endloop
  endfacet
  facet normal -0.180745 0.908663 -0.376381
    outer loop
      vertex -1.59095 3.84089 -2.77785
      vertex -1.87665 4.53064 -0.975451
      vertex 0 4.15735 -2.77785
    endloop
  endfacet
  facet normal -0.396639 0.593613 -0.700215
    outer loop
      vertex -1.06304 2.5664 -4.15735
      vertex -1.96424 1.96424 -4.15735
      vertex -1.59095 3.84089 -2.77785
    endloop
  endfacet
  facet normal -0.514717 0.770328 0.37638
    outer loop
      vertex -1.87665 4.53064 0.975451
      vertex -3.4676 3.4676 0.975451
      vertex -2.93969 2.93969 2.77785
    endloop
  endfacet
  facet normal 0.514716 0.770328 0.376381
    outer loop
      vertex 1.87665 4.53064 0.975451
      vertex 1.59095 3.84089 2.77785
      vertex 2.93969 2.93969 2.77785
    endloop
  endfacet
  facet normal -0.216148 -0.323487 0.921215
    outer loop
      vertex -0.689748 -0.689748 4.90393
      vertex -1.96424 -1.96424 4.15735
      vertex -0.373289 -0.901199 4.90393
    endloop
  endfacet
  facet normal 0.770328 -0.514716 0.376381
    outer loop
      vertex 3.84089 -1.59095 2.77785
      vertex 2.93969 -2.93969 2.77785
      vertex 4.53064 -1.87665 0.975451
    endloop
  endfacet
  facet normal 0.700214 -0.139282 0.700215
    outer loop
      vertex 2.77785 0 4.15735
      vertex 2.5664 -1.06304 4.15735
      vertex 3.84089 -1.59095 2.77785
    endloop
  endfacet
  facet normal -0.83147 -0.55557 0
    outer loop
      vertex -3.4676 -3.4676 -0.975451
      vertex -4.53064 -1.87665 0.975451
      vertex -4.53064 -1.87665 -0.975451
    endloop
  endfacet
  facet normal -0.83147 -0.55557 0
    outer loop
      vertex -4.53064 -1.87665 0.975451
      vertex -3.4676 -3.4676 -0.975451
      vertex -3.4676 -3.4676 0.975451
    endloop
  endfacet
  facet normal -0.770328 -0.514716 0.376381
    outer loop
      vertex -3.84089 -1.59095 2.77785
      vertex -4.53064 -1.87665 0.975451
      vertex -2.93969 -2.93969 2.77785
    endloop
  endfacet
  facet normal -0.39664 -0.593613 0.700215
    outer loop
      vertex -1.96424 -1.96424 4.15735
      vertex -2.93969 -2.93969 2.77785
      vertex -1.59095 -3.84089 2.77785
    endloop
  endfacet
  facet normal -0.396639 -0.593613 0.700215
    outer loop
      vertex -1.06304 -2.5664 4.15735
      vertex -1.96424 -1.96424 4.15735
      vertex -1.59095 -3.84089 2.77785
    endloop
  endfacet
  facet normal 0.700214 -0.139281 0.700214
    outer loop
      vertex 4.15735 0 2.77785
      vertex 2.77785 0 4.15735
      vertex 3.84089 -1.59095 2.77785
    endloop
  endfacet
  facet normal 0.908663 -0.180745 0.376381
    outer loop
      vertex 4.15735 0 2.77785
      vertex 3.84089 -1.59095 2.77785
      vertex 4.53064 -1.87665 0.975451
    endloop
  endfacet
  facet normal 0.514716 -0.770328 -0.376381
    outer loop
      vertex 1.87665 -4.53064 -0.975451
      vertex 1.59095 -3.84089 -2.77785
      vertex 2.93969 -2.93969 -2.77785
    endloop
  endfacet
  facet normal -0.216147 -0.323488 -0.921214
    outer loop
      vertex -1.06304 -2.5664 -4.15735
      vertex -1.96424 -1.96424 -4.15735
      vertex -0.373289 -0.901199 -4.90393
    endloop
  endfacet
  facet normal 0.139282 -0.700214 -0.700215
    outer loop
      vertex 1.59095 -3.84089 -2.77785
      vertex 0 -2.77785 -4.15735
      vertex 1.06304 -2.5664 -4.15735
    endloop
  endfacet
  facet normal 0.514717 0.770328 -0.37638
    outer loop
      vertex 2.93969 2.93969 -2.77785
      vertex 1.87665 4.53064 -0.975451
      vertex 3.4676 3.4676 -0.975451
    endloop
  endfacet
  facet normal -0.770328 0.514716 -0.376381
    outer loop
      vertex -3.84089 1.59095 -2.77785
      vertex -4.53064 1.87665 -0.975451
      vertex -2.93969 2.93969 -2.77785
    endloop
  endfacet
  facet normal -0.770328 0.514717 -0.37638
    outer loop
      vertex -2.93969 2.93969 -2.77785
      vertex -4.53064 1.87665 -0.975451
      vertex -3.4676 3.4676 -0.975451
    endloop
  endfacet
  facet normal -0.908663 -0.180744 0.376381
    outer loop
      vertex -4.15735 0 2.77785
      vertex -4.90393 0 0.975451
      vertex -4.53064 -1.87665 0.975451
    endloop
  endfacet
  facet normal -0.908663 0.180744 0.376381
    outer loop
      vertex -4.53064 1.87665 0.975451
      vertex -4.90393 0 0.975451
      vertex -4.15735 0 2.77785
    endloop
  endfacet
  facet normal 0 0 -1
    outer loop
      vertex 0.901199 -0.373289 -4.90393
      vertex 0.901199 0.373289 -4.90393
      vertex 0.975451 0 -4.90393
    endloop
  endfacet
  facet normal 0 0 -1
    outer loop
      vertex 0.689748 -0.689748 -4.90393
      vertex 0.901199 0.373289 -4.90393
      vertex 0.901199 -0.373289 -4.90393
    endloop
  endfacet
  facet normal 0 0 -1
    outer loop
      vertex 0.689748 -0.689748 -4.90393
      vertex 0.689748 0.689748 -4.90393
      vertex 0.901199 0.373289 -4.90393
    endloop
  endfacet
  facet normal 0 0 -1
    outer loop
      vertex 0.373289 -0.901199 -4.90393
      vertex 0.689748 0.689748 -4.90393
      vertex 0.689748 -0.689748 -4.90393
    endloop
  endfacet
  facet normal 0 0 -1
    outer loop
      vertex 0.373289 -0.901199 -4.90393
      vertex 0.373289 0.901199 -4.90393
      vertex 0.689748 0.689748 -4.90393
    endloop
  endfacet
  facet normal 0 0 -1
    outer loop
      vertex 0 -0.975451 -4.90393
      vertex 0.373289 0.901199 -4.90393
      vertex 0.373289 -0.901199 -4.90393
    endloop
  endfacet
  facet normal 0 0 -1
    outer loop
      vertex 0 -0.975451 -4.90393
      vertex 0 0.975451 -4.90393
      vertex 0.373289 0.901199 -4.90393
    endloop
  endfacet
  facet normal 0 0 -1
    outer loop
      vertex -0.373289 -0.901199 -4.90393
      vertex 0 0.975451 -4.90393
      vertex 0 -0.975451 -4.90393
    endloop
  endfacet
  facet normal 0 0 -1
    outer loop
      vertex -0.373289 -0.901199 -4.90393
      vertex -0.373289 0.901199 -4.90393
      vertex 0 0.975451 -4.90393
    endloop
  endfacet
  facet normal 0 0 -1
    outer loop
      vertex -0.689748 -0.689748 -4.90393
      vertex -0.373289 0.901199 -4.90393
      vertex -0.373289 -0.901199 -4.90393
    endloop
  endfacet
  facet normal 0 0 -1
    outer loop
      vertex -0.689748 -0.689748 -4.90393
      vertex -0.689748 0.689748 -4.90393
      vertex -0.373289 0.901199 -4.90393
    endloop
  endfacet
  facet normal 0 0 -1
    outer loop
      vertex -0.901199 -0.373289 -4.90393
      vertex -0.689748 0.689748 -4.90393
      vertex -0.689748 -0.689748 -4.90393
    endloop
  endfacet
  facet normal 0 0 -1
    outer loop
      vertex -0.901199 -0.373289 -4.90393
      vertex -0.901199 0.373289 -4.90393
      vertex -0.689748 0.689748 -4.90393
    endloop
  endfacet
  facet normal 0 -0 -1
    outer loop
      vertex -0.901199 0.373289 -4.90393
      vertex -0.901199 -0.373289 -4.90393
      vertex -0.975451 0 -4.90393
    endloop
  endfacet
  facet normal -0.700214 0.139281 -0.700214
    outer loop
      vertex -2.77785 0 -4.15735
      vertex -4.15735 0 -2.77785
      vertex -3.84089 1.59095 -2.77785
    endloop
  endfacet
  facet normal -0.55557 0.83147 0
    outer loop
      vertex -1.87665 4.53064 -0.975451
      vertex -3.4676 3.4676 0.975451
      vertex -1.87665 4.53064 0.975451
    endloop
  endfacet
  facet normal -0.55557 0.83147 0
    outer loop
      vertex -3.4676 3.4676 0.975451
      vertex -1.87665 4.53064 -0.975451
      vertex -3.4676 3.4676 -0.975451
    endloop
  endfacet
  facet normal -0.770328 0.514716 0.376381
    outer loop
      vertex -2.93969 2.93969 2.77785
      vertex -4.53064 1.87665 0.975451
      vertex -3.84089 1.59095 2.77785
    endloop
  endfacet
  facet normal -0.700214 0.139282 0.700215
    outer loop
      vertex -2.5664 1.06304 4.15735
      vertex -3.84089 1.59095 2.77785
      vertex -2.77785 0 4.15735
    endloop
  endfacet
  facet normal 0.770328 0.514717 0.37638
    outer loop
      vertex 3.4676 3.4676 0.975451
      vertex 2.93969 2.93969 2.77785
      vertex 4.53064 1.87665 0.975451
    endloop
  endfacet
  facet normal 0.514717 0.770328 0.37638
    outer loop
      vertex 3.4676 3.4676 0.975451
      vertex 1.87665 4.53064 0.975451
      vertex 2.93969 2.93969 2.77785
    endloop
  endfacet
  facet normal 0.381579 0.0759012 0.921215
    outer loop
      vertex 2.5664 1.06304 4.15735
      vertex 0.901199 0.373289 4.90393
      vertex 0.975451 0 4.90393
    endloop
  endfacet
  facet normal 0.381579 0.075901 0.921214
    outer loop
      vertex 2.5664 1.06304 4.15735
      vertex 0.975451 0 4.90393
      vertex 2.77785 0 4.15735
    endloop
  endfacet
  facet normal 0.514716 0.770328 -0.376381
    outer loop
      vertex 2.93969 2.93969 -2.77785
      vertex 1.59095 3.84089 -2.77785
      vertex 1.87665 4.53064 -0.975451
    endloop
  endfacet
  facet normal 0.593613 0.396639 -0.700215
    outer loop
      vertex 2.5664 1.06304 -4.15735
      vertex 1.96424 1.96424 -4.15735
      vertex 3.84089 1.59095 -2.77785
    endloop
  endfacet
  facet normal -0.139282 0.700214 -0.700215
    outer loop
      vertex -1.06304 2.5664 -4.15735
      vertex -1.59095 3.84089 -2.77785
      vertex 0 2.77785 -4.15735
    endloop
  endfacet
  facet normal -0.075901 0.381579 -0.921214
    outer loop
      vertex 0 0.975451 -4.90393
      vertex -1.06304 2.5664 -4.15735
      vertex 0 2.77785 -4.15735
    endloop
  endfacet
  facet normal -0.381579 0.0759012 -0.921215
    outer loop
      vertex -0.975451 0 -4.90393
      vertex -2.5664 1.06304 -4.15735
      vertex -0.901199 0.373289 -4.90393
    endloop
  endfacet
  facet normal 0.55557 0.83147 -0
    outer loop
      vertex 3.4676 3.4676 -0.975451
      vertex 1.87665 4.53064 0.975451
      vertex 3.4676 3.4676 0.975451
    endloop
  endfacet
  facet normal 0.55557 0.83147 0
    outer loop
      vertex 1.87665 4.53064 0.975451
      vertex 3.4676 3.4676 -0.975451
      vertex 1.87665 4.53064 -0.975451
    endloop
  endfacet
  facet normal 0.139281 0.700214 -0.700214
    outer loop
      vertex 1.59095 3.84089 -2.77785
      vertex 0 2.77785 -4.15735
      vertex 0 4.15735 -2.77785
    endloop
  endfacet
  facet normal -0.19509 0.980785 0
    outer loop
      vertex -0.809016 4.743 0.587785
      vertex 0 4.90393 0.975451
      vertex 0 4.90393 0.850651
    endloop
  endfacet
  facet normal -0.19509 0.980785 -3.1648e-07
    outer loop
      vertex 0 4.90393 0.975451
      vertex -0.809016 4.743 0.587785
      vertex -1.87665 4.53064 0.975451
    endloop
  endfacet
  facet normal -0.19509 0.980785 0
    outer loop
      vertex -0.809016 4.743 -0.587785
      vertex -1.87665 4.53064 0.975451
      vertex -0.809016 4.743 0.587785
    endloop
  endfacet
  facet normal -0.19509 0.980785 0
    outer loop
      vertex 0 4.90393 -0.975451
      vertex -0.809016 4.743 -0.587785
      vertex 0 4.90393 -0.850651
    endloop
  endfacet
  facet normal -0.19509 0.980785 0
    outer loop
      vertex -0.809016 4.743 -0.587785
      vertex -1.87665 4.53064 -0.975451
      vertex -1.87665 4.53064 0.975451
    endloop
  endfacet
  facet normal -0.19509 0.980785 3.1648e-07
    outer loop
      vertex -1.87665 4.53064 -0.975451
      vertex -0.809016 4.743 -0.587785
      vertex 0 4.90393 -0.975451
    endloop
  endfacet
  facet normal -0.514716 0.770328 0.376381
    outer loop
      vertex -1.87665 4.53064 0.975451
      vertex -2.93969 2.93969 2.77785
      vertex -1.59095 3.84089 2.77785
    endloop
  endfacet
  facet normal -0.770328 -0.514717 0.37638
    outer loop
      vertex -2.93969 -2.93969 2.77785
      vertex -4.53064 -1.87665 0.975451
      vertex -3.4676 -3.4676 0.975451
    endloop
  endfacet
  facet normal 0.770328 -0.514717 0.37638
    outer loop
      vertex 4.53064 -1.87665 0.975451
      vertex 2.93969 -2.93969 2.77785
      vertex 3.4676 -3.4676 0.975451
    endloop
  endfacet
  facet normal 0.593613 -0.39664 0.700215
    outer loop
      vertex 3.84089 -1.59095 2.77785
      vertex 1.96424 -1.96424 4.15735
      vertex 2.93969 -2.93969 2.77785
    endloop
  endfacet
  facet normal -0.514717 -0.770328 0.37638
    outer loop
      vertex -2.93969 -2.93969 2.77785
      vertex -3.4676 -3.4676 0.975451
      vertex -1.87665 -4.53064 0.975451
    endloop
  endfacet
  facet normal -0.075901 -0.381579 0.921214
    outer loop
      vertex 0 -0.975451 4.90393
      vertex -1.06304 -2.5664 4.15735
      vertex 0 -2.77785 4.15735
    endloop
  endfacet
  facet normal -0.700214 -0.139282 -0.700215
    outer loop
      vertex -2.5664 -1.06304 -4.15735
      vertex -3.84089 -1.59095 -2.77785
      vertex -2.77785 0 -4.15735
    endloop
  endfacet
  facet normal 0.180744 -0.908663 -0.376381
    outer loop
      vertex 1.87665 -4.53064 -0.975451
      vertex 0 -4.90393 -0.975451
      vertex 0 -4.15735 -2.77785
    endloop
  endfacet
  facet normal 0.180745 -0.908663 -0.376381
    outer loop
      vertex 1.87665 -4.53064 -0.975451
      vertex 0 -4.15735 -2.77785
      vertex 1.59095 -3.84089 -2.77785
    endloop
  endfacet
  facet normal 0.770328 -0.514716 -0.376381
    outer loop
      vertex 4.53064 -1.87665 -0.975451
      vertex 2.93969 -2.93969 -2.77785
      vertex 3.84089 -1.59095 -2.77785
    endloop
  endfacet
  facet normal 0.908664 -0.180744 -0.37638
    outer loop
      vertex 4.48012 -1.03208 -1.50297
      vertex 4.15735 0 -2.77785
      vertex 4.47954 0 -2
    endloop
  endfacet
  facet normal 0.908663 -0.180745 -0.376381
    outer loop
      vertex 4.48042 -1.56366 -1.24698
      vertex 4.15735 0 -2.77785
      vertex 4.48012 -1.03208 -1.50297
    endloop
  endfacet
  facet normal 0.908661 -0.180749 -0.376384
    outer loop
      vertex 4.48042 -1.56366 -1.24698
      vertex 4.53064 -1.87665 -0.975451
      vertex 4.15735 0 -2.77785
    endloop
  endfacet
  facet normal 0.908664 -0.180744 -0.37638
    outer loop
      vertex 4.53064 -1.87665 -0.975451
      vertex 4.48042 -1.56366 -1.24698
      vertex 4.58057 -1.62564 -0.975451
    endloop
  endfacet
  facet normal 0.831469 0.55557 -2.15636e-07
    outer loop
      vertex 4.53064 1.87665 0.12431
      vertex 3.4676 3.4676 0.975451
      vertex 4.48172 1.94986 0.445042
    endloop
  endfacet
  facet normal 0.83147 0.55557 1.1447e-07
    outer loop
      vertex 4.53064 1.87665 0.975451
      vertex 4.48172 1.94986 0.445042
      vertex 3.4676 3.4676 0.975451
    endloop
  endfacet
  facet normal 0.83147 0.55557 0
    outer loop
      vertex 4.48172 1.94986 0.445042
      vertex 4.53064 1.87665 0.975451
      vertex 4.53064 1.87665 0.536838
    endloop
  endfacet
  facet normal 0.83147 0.55557 0
    outer loop
      vertex 3.4676 3.4676 0.975451
      vertex 4.53064 1.87665 0.12431
      vertex 3.4676 3.4676 -0.975451
    endloop
  endfacet
  facet normal 0.83147 0.55557 0
    outer loop
      vertex 3.4676 3.4676 -0.975451
      vertex 4.53064 1.87665 0.12431
      vertex 4.53064 1.87665 -0.975451
    endloop
  endfacet
  facet normal 0.980785 0.195091 0
    outer loop
      vertex 4.60021 1.52687 0.975451
      vertex 4.53064 1.87665 0.536838
      vertex 4.53064 1.87665 0.975451
    endloop
  endfacet
  facet normal 0.980785 0.19509 0
    outer loop
      vertex 4.58057 1.62564 -0.975451
      vertex 4.53064 1.87665 -0.975451
      vertex 4.53064 1.87665 0.12431
    endloop
  endfacet
  facet normal -0.075901 -0.381579 -0.921214
    outer loop
      vertex 0 -2.77785 -4.15735
      vertex -1.06304 -2.5664 -4.15735
      vertex 0 -0.975451 -4.90393
    endloop
  endfacet
  facet normal 0.216147 -0.323488 -0.921214
    outer loop
      vertex 1.06304 -2.5664 -4.15735
      vertex 0.373289 -0.901199 -4.90393
      vertex 1.96424 -1.96424 -4.15735
    endloop
  endfacet
  facet normal 0.908663 -0.180745 -0.376381
    outer loop
      vertex 4.53064 -1.87665 -0.975451
      vertex 3.84089 -1.59095 -2.77785
      vertex 4.15735 0 -2.77785
    endloop
  endfacet
  facet normal 0.39664 -0.593613 -0.700215
    outer loop
      vertex 2.93969 -2.93969 -2.77785
      vertex 1.59095 -3.84089 -2.77785
      vertex 1.96424 -1.96424 -4.15735
    endloop
  endfacet
  facet normal 0.593613 -0.39664 -0.700215
    outer loop
      vertex 2.93969 -2.93969 -2.77785
      vertex 1.96424 -1.96424 -4.15735
      vertex 3.84089 -1.59095 -2.77785
    endloop
  endfacet
  facet normal 0.593613 -0.396639 -0.700215
    outer loop
      vertex 3.84089 -1.59095 -2.77785
      vertex 1.96424 -1.96424 -4.15735
      vertex 2.5664 -1.06304 -4.15735
    endloop
  endfacet
  facet normal -0.83147 0.55557 0
    outer loop
      vertex -4.53064 1.87665 -0.975451
      vertex -3.4676 3.4676 0.975451
      vertex -3.4676 3.4676 -0.975451
    endloop
  endfacet
  facet normal -0.83147 0.55557 0
    outer loop
      vertex -3.4676 3.4676 0.975451
      vertex -4.53064 1.87665 -0.975451
      vertex -4.53064 1.87665 0.975451
    endloop
  endfacet
  facet normal -0.514717 0.770328 -0.37638
    outer loop
      vertex -2.93969 2.93969 -2.77785
      vertex -3.4676 3.4676 -0.975451
      vertex -1.87665 4.53064 -0.975451
    endloop
  endfacet
  facet normal -0.39664 0.593613 -0.700215
    outer loop
      vertex -1.96424 1.96424 -4.15735
      vertex -2.93969 2.93969 -2.77785
      vertex -1.59095 3.84089 -2.77785
    endloop
  endfacet
  facet normal -0.593613 0.39664 -0.700215
    outer loop
      vertex -1.96424 1.96424 -4.15735
      vertex -3.84089 1.59095 -2.77785
      vertex -2.93969 2.93969 -2.77785
    endloop
  endfacet
  facet normal -0.381579 0.075901 -0.921214
    outer loop
      vertex -0.975451 0 -4.90393
      vertex -2.77785 0 -4.15735
      vertex -2.5664 1.06304 -4.15735
    endloop
  endfacet
  facet normal -0.700214 0.139282 -0.700215
    outer loop
      vertex -2.77785 0 -4.15735
      vertex -3.84089 1.59095 -2.77785
      vertex -2.5664 1.06304 -4.15735
    endloop
  endfacet
  facet normal -0.908663 -0.180744 -0.376381
    outer loop
      vertex -4.53064 -1.87665 -0.975451
      vertex -4.90393 0 -0.975451
      vertex -4.15735 0 -2.77785
    endloop
  endfacet
  facet normal -0.770328 -0.514717 -0.37638
    outer loop
      vertex -3.4676 -3.4676 -0.975451
      vertex -4.53064 -1.87665 -0.975451
      vertex -2.93969 -2.93969 -2.77785
    endloop
  endfacet
  facet normal -0.396639 0.593613 0.700215
    outer loop
      vertex -1.59095 3.84089 2.77785
      vertex -1.96424 1.96424 4.15735
      vertex -1.06304 2.5664 4.15735
    endloop
  endfacet
  facet normal -0.180744 0.908663 0.376381
    outer loop
      vertex 0 4.90393 0.975451
      vertex -1.87665 4.53064 0.975451
      vertex 0 4.15735 2.77785
    endloop
  endfacet
  facet normal -0.139282 0.700214 0.700215
    outer loop
      vertex 0 2.77785 4.15735
      vertex -1.59095 3.84089 2.77785
      vertex -1.06304 2.5664 4.15735
    endloop
  endfacet
  facet normal -0.323487 0.216148 0.921215
    outer loop
      vertex -0.689748 0.689748 4.90393
      vertex -1.96424 1.96424 4.15735
      vertex -0.901199 0.373289 4.90393
    endloop
  endfacet
  facet normal 0.216147 0.323488 0.921214
    outer loop
      vertex 1.06304 2.5664 4.15735
      vertex 0.373289 0.901199 4.90393
      vertex 1.96424 1.96424 4.15735
    endloop
  endfacet
  facet normal 0.180745 0.908663 0.376381
    outer loop
      vertex 1.87665 4.53064 0.975451
      vertex 0 4.15735 2.77785
      vertex 1.59095 3.84089 2.77785
    endloop
  endfacet
  facet normal 0.180744 0.908663 0.376381
    outer loop
      vertex 0 4.90393 0.975451
      vertex 0 4.15735 2.77785
      vertex 1.87665 4.53064 0.975451
    endloop
  endfacet
  facet normal 0.700214 -0.139281 -0.700214
    outer loop
      vertex 3.84089 -1.59095 -2.77785
      vertex 2.77785 0 -4.15735
      vertex 4.15735 0 -2.77785
    endloop
  endfacet
  facet normal 0.700214 -0.139282 -0.700215
    outer loop
      vertex 3.84089 -1.59095 -2.77785
      vertex 2.5664 -1.06304 -4.15735
      vertex 2.77785 0 -4.15735
    endloop
  endfacet
  facet normal 0.216148 0.323487 -0.921215
    outer loop
      vertex 0.689748 0.689748 -4.90393
      vertex 0.373289 0.901199 -4.90393
      vertex 1.96424 1.96424 -4.15735
    endloop
  endfacet
  facet normal -0.139281 0.700214 -0.700214
    outer loop
      vertex 0 2.77785 -4.15735
      vertex -1.59095 3.84089 -2.77785
      vertex 0 4.15735 -2.77785
    endloop
  endfacet
  facet normal 0.180745 0.908663 -0.376381
    outer loop
      vertex 1.59095 3.84089 -2.77785
      vertex 0 4.15735 -2.77785
      vertex 1.87665 4.53064 -0.975451
    endloop
  endfacet
  facet normal -0.216148 0.323487 -0.921215
    outer loop
      vertex -0.689748 0.689748 -4.90393
      vertex -1.96424 1.96424 -4.15735
      vertex -0.373289 0.901199 -4.90393
    endloop
  endfacet
  facet normal -0.216147 0.323488 -0.921214
    outer loop
      vertex -0.373289 0.901199 -4.90393
      vertex -1.96424 1.96424 -4.15735
      vertex -1.06304 2.5664 -4.15735
    endloop
  endfacet
  facet normal 0.39664 0.593613 -0.700215
    outer loop
      vertex 1.96424 1.96424 -4.15735
      vertex 1.59095 3.84089 -2.77785
      vertex 2.93969 2.93969 -2.77785
    endloop
  endfacet
  facet normal 0.908663 0.180745 -0.376381
    outer loop
      vertex 4.15735 0 -2.77785
      vertex 3.84089 1.59095 -2.77785
      vertex 4.53064 1.87665 -0.975451
    endloop
  endfacet
  facet normal -0.514716 -0.770328 0.376381
    outer loop
      vertex -1.59095 -3.84089 2.77785
      vertex -2.93969 -2.93969 2.77785
      vertex -1.87665 -4.53064 0.975451
    endloop
  endfacet
  facet normal 0.180744 -0.908663 0.376381
    outer loop
      vertex 0 -4.15735 2.77785
      vertex 0 -4.90393 0.975451
      vertex 1.87665 -4.53064 0.975451
    endloop
  endfacet
  facet normal -0.323487 -0.216148 0.921215
    outer loop
      vertex -0.901199 -0.373289 4.90393
      vertex -1.96424 -1.96424 4.15735
      vertex -0.689748 -0.689748 4.90393
    endloop
  endfacet
  facet normal 0.216148 -0.323487 0.921215
    outer loop
      vertex 0.689748 -0.689748 4.90393
      vertex 0.373289 -0.901199 4.90393
      vertex 1.96424 -1.96424 4.15735
    endloop
  endfacet
  facet normal 0.216147 -0.323488 0.921214
    outer loop
      vertex 1.96424 -1.96424 4.15735
      vertex 0.373289 -0.901199 4.90393
      vertex 1.06304 -2.5664 4.15735
    endloop
  endfacet
  facet normal 0.381579 -0.0759012 0.921215
    outer loop
      vertex 0.975451 0 4.90393
      vertex 0.901199 -0.373289 4.90393
      vertex 2.5664 -1.06304 4.15735
    endloop
  endfacet
  facet normal -0.593613 -0.396639 -0.700215
    outer loop
      vertex -1.96424 -1.96424 -4.15735
      vertex -3.84089 -1.59095 -2.77785
      vertex -2.5664 -1.06304 -4.15735
    endloop
  endfacet
  facet normal -0.770328 -0.514716 -0.376381
    outer loop
      vertex -2.93969 -2.93969 -2.77785
      vertex -4.53064 -1.87665 -0.975451
      vertex -3.84089 -1.59095 -2.77785
    endloop
  endfacet
  facet normal 0.514717 -0.770328 -0.37638
    outer loop
      vertex 3.4676 -3.4676 -0.975451
      vertex 1.87665 -4.53064 -0.975451
      vertex 2.93969 -2.93969 -2.77785
    endloop
  endfacet
  facet normal 0.55557 -0.83147 0
    outer loop
      vertex 1.87665 -4.53064 -0.975451
      vertex 3.4676 -3.4676 0.975451
      vertex 1.87665 -4.53064 0.975451
    endloop
  endfacet
  facet normal 0.55557 -0.83147 0
    outer loop
      vertex 3.4676 -3.4676 0.975451
      vertex 1.87665 -4.53064 -0.975451
      vertex 3.4676 -3.4676 -0.975451
    endloop
  endfacet
  facet normal 0.700214 0.139281 -0.700214
    outer loop
      vertex 4.15735 0 -2.77785
      vertex 2.77785 0 -4.15735
      vertex 3.84089 1.59095 -2.77785
    endloop
  endfacet
  facet normal 0.700214 0.139282 -0.700215
    outer loop
      vertex 2.77785 0 -4.15735
      vertex 2.5664 1.06304 -4.15735
      vertex 3.84089 1.59095 -2.77785
    endloop
  endfacet
  facet normal -0.396639 -0.593613 -0.700215
    outer loop
      vertex -1.59095 -3.84089 -2.77785
      vertex -1.96424 -1.96424 -4.15735
      vertex -1.06304 -2.5664 -4.15735
    endloop
  endfacet
  facet normal -0.139282 -0.700214 -0.700215
    outer loop
      vertex 0 -2.77785 -4.15735
      vertex -1.59095 -3.84089 -2.77785
      vertex -1.06304 -2.5664 -4.15735
    endloop
  endfacet
  facet normal -0.0759012 -0.381579 -0.921215
    outer loop
      vertex 0 -0.975451 -4.90393
      vertex -1.06304 -2.5664 -4.15735
      vertex -0.373289 -0.901199 -4.90393
    endloop
  endfacet
  facet normal 0.381579 -0.0759012 -0.921215
    outer loop
      vertex 2.5664 -1.06304 -4.15735
      vertex 0.901199 -0.373289 -4.90393
      vertex 0.975451 0 -4.90393
    endloop
  endfacet
  facet normal -0.323488 0.216147 -0.921214
    outer loop
      vertex -0.901199 0.373289 -4.90393
      vertex -2.5664 1.06304 -4.15735
      vertex -1.96424 1.96424 -4.15735
    endloop
  endfacet
  facet normal -0.323487 0.216148 -0.921215
    outer loop
      vertex -0.901199 0.373289 -4.90393
      vertex -1.96424 1.96424 -4.15735
      vertex -0.689748 0.689748 -4.90393
    endloop
  endfacet
  facet normal -0.381579 0.075901 0.921214
    outer loop
      vertex -2.5664 1.06304 4.15735
      vertex -2.77785 0 4.15735
      vertex -0.975451 0 4.90393
    endloop
  endfacet
  facet normal -0.180745 0.908663 0.376381
    outer loop
      vertex 0 4.15735 2.77785
      vertex -1.87665 4.53064 0.975451
      vertex -1.59095 3.84089 2.77785
    endloop
  endfacet
  facet normal -0.139281 0.700214 0.700214
    outer loop
      vertex 0 4.15735 2.77785
      vertex -1.59095 3.84089 2.77785
      vertex 0 2.77785 4.15735
    endloop
  endfacet
  facet normal 0.323488 0.216147 -0.921214
    outer loop
      vertex 2.5664 1.06304 -4.15735
      vertex 0.901199 0.373289 -4.90393
      vertex 1.96424 1.96424 -4.15735
    endloop
  endfacet
  facet normal 0.381579 0.0759012 -0.921215
    outer loop
      vertex 0.975451 0 -4.90393
      vertex 0.901199 0.373289 -4.90393
      vertex 2.5664 1.06304 -4.15735
    endloop
  endfacet
  facet normal 0.216147 0.323488 -0.921214
    outer loop
      vertex 1.96424 1.96424 -4.15735
      vertex 0.373289 0.901199 -4.90393
      vertex 1.06304 2.5664 -4.15735
    endloop
  endfacet
  facet normal 0.0759012 0.381579 -0.921215
    outer loop
      vertex 0.373289 0.901199 -4.90393
      vertex 0 0.975451 -4.90393
      vertex 1.06304 2.5664 -4.15735
    endloop
  endfacet
  facet normal 0.770328 0.514716 -0.376381
    outer loop
      vertex 3.84089 1.59095 -2.77785
      vertex 2.93969 2.93969 -2.77785
      vertex 4.53064 1.87665 -0.975451
    endloop
  endfacet
  facet normal 0.593613 0.39664 -0.700215
    outer loop
      vertex 3.84089 1.59095 -2.77785
      vertex 1.96424 1.96424 -4.15735
      vertex 2.93969 2.93969 -2.77785
    endloop
  endfacet
  facet normal 0.39664 -0.593613 0.700215
    outer loop
      vertex 1.96424 -1.96424 4.15735
      vertex 1.59095 -3.84089 2.77785
      vertex 2.93969 -2.93969 2.77785
    endloop
  endfacet
  facet normal 0.396639 -0.593613 0.700215
    outer loop
      vertex 1.96424 -1.96424 4.15735
      vertex 1.06304 -2.5664 4.15735
      vertex 1.59095 -3.84089 2.77785
    endloop
  endfacet
  facet normal -0.180745 -0.908663 0.376381
    outer loop
      vertex -1.59095 -3.84089 2.77785
      vertex -1.87665 -4.53064 0.975451
      vertex 0 -4.15735 2.77785
    endloop
  endfacet
  facet normal 0.0759012 -0.381579 0.921215
    outer loop
      vertex 0.373289 -0.901199 4.90393
      vertex 0 -0.975451 4.90393
      vertex 1.06304 -2.5664 4.15735
    endloop
  endfacet
  facet normal 0.19509 -0.980785 0
    outer loop
      vertex 0 -4.90393 -0.850651
      vertex 0 -4.90393 -0.975451
      vertex 0.309016 -4.84246 -0.951056
    endloop
  endfacet
  facet normal 0.19509 -0.980785 -5.06384e-07
    outer loop
      vertex 0 -4.90393 0.975451
      vertex 0.309016 -4.84246 0.951056
      vertex 1.87665 -4.53064 0.975451
    endloop
  endfacet
  facet normal 0.19509 -0.980785 0
    outer loop
      vertex 0.309016 -4.84246 0.951056
      vertex 0 -4.90393 0.975451
      vertex 0 -4.90393 0.850651
    endloop
  endfacet
  facet normal 0.19509 -0.980785 -2.22251e-07
    outer loop
      vertex 1 -4.70501 0
      vertex 1.87665 -4.53064 0.975451
      vertex 0.309016 -4.84246 0.951056
    endloop
  endfacet
  facet normal 0.19509 -0.980785 2.22251e-07
    outer loop
      vertex 1.87665 -4.53064 -0.975451
      vertex 1 -4.70501 0
      vertex 0.309016 -4.84246 -0.951056
    endloop
  endfacet
  facet normal 0.19509 -0.980785 0
    outer loop
      vertex 1 -4.70501 0
      vertex 1.87665 -4.53064 -0.975451
      vertex 1.87665 -4.53064 0.975451
    endloop
  endfacet
  facet normal 0.19509 -0.980785 5.06384e-07
    outer loop
      vertex 1.87665 -4.53064 -0.975451
      vertex 0.309016 -4.84246 -0.951056
      vertex 0 -4.90393 -0.975451
    endloop
  endfacet
  facet normal -0.0759012 -0.381579 0.921215
    outer loop
      vertex -0.373289 -0.901199 4.90393
      vertex -1.06304 -2.5664 4.15735
      vertex 0 -0.975451 4.90393
    endloop
  endfacet
  facet normal -0.216147 -0.323488 0.921214
    outer loop
      vertex -0.373289 -0.901199 4.90393
      vertex -1.96424 -1.96424 4.15735
      vertex -1.06304 -2.5664 4.15735
    endloop
  endfacet
  facet normal -0.908663 -0.180745 -0.376381
    outer loop
      vertex -3.84089 -1.59095 -2.77785
      vertex -4.53064 -1.87665 -0.975451
      vertex -4.15735 0 -2.77785
    endloop
  endfacet
  facet normal -0.700214 -0.139281 -0.700214
    outer loop
      vertex -3.84089 -1.59095 -2.77785
      vertex -4.15735 0 -2.77785
      vertex -2.77785 0 -4.15735
    endloop
  endfacet
  facet normal -0.19509 -0.980785 -3.1648e-07
    outer loop
      vertex -0.809016 -4.743 0.587785
      vertex 0 -4.90393 0.975451
      vertex -1.87665 -4.53064 0.975451
    endloop
  endfacet
  facet normal -0.19509 -0.980785 -0
    outer loop
      vertex 0 -4.90393 0.975451
      vertex -0.809016 -4.743 0.587785
      vertex 0 -4.90393 0.850651
    endloop
  endfacet
  facet normal -0.19509 -0.980785 0
    outer loop
      vertex -1.87665 -4.53064 0.975451
      vertex -0.809016 -4.743 -0.587785
      vertex -0.809016 -4.743 0.587785
    endloop
  endfacet
  facet normal -0.19509 -0.980785 0
    outer loop
      vertex -1.87665 -4.53064 -0.975451
      vertex -0.809016 -4.743 -0.587785
      vertex -1.87665 -4.53064 0.975451
    endloop
  endfacet
  facet normal -0.19509 -0.980785 3.1648e-07
    outer loop
      vertex 0 -4.90393 -0.975451
      vertex -0.809016 -4.743 -0.587785
      vertex -1.87665 -4.53064 -0.975451
    endloop
  endfacet
  facet normal -0.19509 -0.980785 0
    outer loop
      vertex -0.809016 -4.743 -0.587785
      vertex 0 -4.90393 -0.975451
      vertex 0 -4.90393 -0.850651
    endloop
  endfacet
  facet normal 0.216148 -0.323487 -0.921215
    outer loop
      vertex 1.96424 -1.96424 -4.15735
      vertex 0.373289 -0.901199 -4.90393
      vertex 0.689748 -0.689748 -4.90393
    endloop
  endfacet
  facet normal 0.075901 -0.381579 -0.921214
    outer loop
      vertex 1.06304 -2.5664 -4.15735
      vertex 0 -2.77785 -4.15735
      vertex 0 -0.975451 -4.90393
    endloop
  endfacet
  facet normal -0.216148 -0.323487 -0.921215
    outer loop
      vertex -0.373289 -0.901199 -4.90393
      vertex -1.96424 -1.96424 -4.15735
      vertex -0.689748 -0.689748 -4.90393
    endloop
  endfacet
  facet normal -0.323488 -0.216147 -0.921214
    outer loop
      vertex -1.96424 -1.96424 -4.15735
      vertex -2.5664 -1.06304 -4.15735
      vertex -0.901199 -0.373289 -4.90393
    endloop
  endfacet
  facet normal -0.39664 0.593613 0.700215
    outer loop
      vertex -1.59095 3.84089 2.77785
      vertex -2.93969 2.93969 2.77785
      vertex -1.96424 1.96424 4.15735
    endloop
  endfacet
  facet normal -0.593613 0.39664 0.700215
    outer loop
      vertex -2.93969 2.93969 2.77785
      vertex -3.84089 1.59095 2.77785
      vertex -1.96424 1.96424 4.15735
    endloop
  endfacet
  facet normal 0.323487 0.216148 -0.921215
    outer loop
      vertex 0.901199 0.373289 -4.90393
      vertex 0.689748 0.689748 -4.90393
      vertex 1.96424 1.96424 -4.15735
    endloop
  endfacet
  facet normal 0.139282 0.700214 -0.700215
    outer loop
      vertex 1.06304 2.5664 -4.15735
      vertex 0 2.77785 -4.15735
      vertex 1.59095 3.84089 -2.77785
    endloop
  endfacet
  facet normal 0.396639 0.593613 -0.700215
    outer loop
      vertex 1.96424 1.96424 -4.15735
      vertex 1.06304 2.5664 -4.15735
      vertex 1.59095 3.84089 -2.77785
    endloop
  endfacet
  facet normal 0.323488 -0.216147 0.921214
    outer loop
      vertex 2.5664 -1.06304 4.15735
      vertex 0.901199 -0.373289 4.90393
      vertex 1.96424 -1.96424 4.15735
    endloop
  endfacet
  facet normal 0.323487 -0.216148 0.921215
    outer loop
      vertex 0.901199 -0.373289 4.90393
      vertex 0.689748 -0.689748 4.90393
      vertex 1.96424 -1.96424 4.15735
    endloop
  endfacet
  facet normal -0.514716 -0.770328 -0.376381
    outer loop
      vertex -1.87665 -4.53064 -0.975451
      vertex -2.93969 -2.93969 -2.77785
      vertex -1.59095 -3.84089 -2.77785
    endloop
  endfacet
  facet normal -0.514717 -0.770328 -0.37638
    outer loop
      vertex -1.87665 -4.53064 -0.975451
      vertex -3.4676 -3.4676 -0.975451
      vertex -2.93969 -2.93969 -2.77785
    endloop
  endfacet
  facet normal 0.0759012 -0.381579 -0.921215
    outer loop
      vertex 1.06304 -2.5664 -4.15735
      vertex 0 -0.975451 -4.90393
      vertex 0.373289 -0.901199 -4.90393
    endloop
  endfacet
  facet normal -0.323487 -0.216148 -0.921215
    outer loop
      vertex -0.689748 -0.689748 -4.90393
      vertex -1.96424 -1.96424 -4.15735
      vertex -0.901199 -0.373289 -4.90393
    endloop
  endfacet
  facet normal 0 0 1
    outer loop
      vertex 0.901199 0.373289 4.90393
      vertex 0.901199 -0.373289 4.90393
      vertex 0.975451 0 4.90393
    endloop
  endfacet
  facet normal 0 0 1
    outer loop
      vertex 0.689748 0.689748 4.90393
      vertex 0.901199 -0.373289 4.90393
      vertex 0.901199 0.373289 4.90393
    endloop
  endfacet
  facet normal 0 0 1
    outer loop
      vertex 0.689748 0.689748 4.90393
      vertex 0.689748 -0.689748 4.90393
      vertex 0.901199 -0.373289 4.90393
    endloop
  endfacet
  facet normal 0 0 1
    outer loop
      vertex 0.373289 0.901199 4.90393
      vertex 0.689748 -0.689748 4.90393
      vertex 0.689748 0.689748 4.90393
    endloop
  endfacet
  facet normal 0 0 1
    outer loop
      vertex 0.373289 0.901199 4.90393
      vertex 0.373289 -0.901199 4.90393
      vertex 0.689748 -0.689748 4.90393
    endloop
  endfacet
  facet normal 0 0 1
    outer loop
      vertex 0 0.975451 4.90393
      vertex 0.373289 -0.901199 4.90393
      vertex 0.373289 0.901199 4.90393
    endloop
  endfacet
  facet normal 0 0 1
    outer loop
      vertex 0 0.975451 4.90393
      vertex 0 -0.975451 4.90393
      vertex 0.373289 -0.901199 4.90393
    endloop
  endfacet
  facet normal -0 0 1
    outer loop
      vertex -0.373289 0.901199 4.90393
      vertex 0 -0.975451 4.90393
      vertex 0 0.975451 4.90393
    endloop
  endfacet
  facet normal 0 0 1
    outer loop
      vertex -0.373289 0.901199 4.90393
      vertex -0.373289 -0.901199 4.90393
      vertex 0 -0.975451 4.90393
    endloop
  endfacet
  facet normal -0 0 1
    outer loop
      vertex -0.689748 0.689748 4.90393
      vertex -0.373289 -0.901199 4.90393
      vertex -0.373289 0.901199 4.90393
    endloop
  endfacet
  facet normal 0 0 1
    outer loop
      vertex -0.689748 0.689748 4.90393
      vertex -0.689748 -0.689748 4.90393
      vertex -0.373289 -0.901199 4.90393
    endloop
  endfacet
  facet normal -0 0 1
    outer loop
      vertex -0.901199 0.373289 4.90393
      vertex -0.689748 -0.689748 4.90393
      vertex -0.689748 0.689748 4.90393
    endloop
  endfacet
  facet normal 0 0 1
    outer loop
      vertex -0.901199 0.373289 4.90393
      vertex -0.901199 -0.373289 4.90393
      vertex -0.689748 -0.689748 4.90393
    endloop
  endfacet
  facet normal 0 -0 1
    outer loop
      vertex -0.901199 -0.373289 4.90393
      vertex -0.901199 0.373289 4.90393
      vertex -0.975451 0 4.90393
    endloop
  endfacet
  facet normal -0.593613 0.396639 0.700215
    outer loop
      vertex -1.96424 1.96424 4.15735
      vertex -3.84089 1.59095 2.77785
      vertex -2.5664 1.06304 4.15735
    endloop
  endfacet
  facet normal -0.075901 0.381579 0.921214
    outer loop
      vertex 0 2.77785 4.15735
      vertex -1.06304 2.5664 4.15735
      vertex 0 0.975451 4.90393
    endloop
  endfacet
  facet normal 0.139281 -0.700214 0.700214
    outer loop
      vertex 0 -2.77785 4.15735
      vertex 0 -4.15735 2.77785
      vertex 1.59095 -3.84089 2.77785
    endloop
  endfacet
  facet normal 0.139282 -0.700214 0.700215
    outer loop
      vertex 1.06304 -2.5664 4.15735
      vertex 0 -2.77785 4.15735
      vertex 1.59095 -3.84089 2.77785
    endloop
  endfacet
  facet normal -0.323488 0.216147 0.921214
    outer loop
      vertex -1.96424 1.96424 4.15735
      vertex -2.5664 1.06304 4.15735
      vertex -0.901199 0.373289 4.90393
    endloop
  endfacet
  facet normal -0.381579 0.0759012 0.921215
    outer loop
      vertex -0.901199 0.373289 4.90393
      vertex -2.5664 1.06304 4.15735
      vertex -0.975451 0 4.90393
    endloop
  endfacet
  facet normal -0.216147 0.323488 0.921214
    outer loop
      vertex -1.06304 2.5664 4.15735
      vertex -1.96424 1.96424 4.15735
      vertex -0.373289 0.901199 4.90393
    endloop
  endfacet
  facet normal -0.0759012 0.381579 0.921215
    outer loop
      vertex 0 0.975451 4.90393
      vertex -1.06304 2.5664 4.15735
      vertex -0.373289 0.901199 4.90393
    endloop
  endfacet
  facet normal 0.0759012 0.381579 0.921215
    outer loop
      vertex 1.06304 2.5664 4.15735
      vertex 0 0.975451 4.90393
      vertex 0.373289 0.901199 4.90393
    endloop
  endfacet
  facet normal 0.075901 0.381579 0.921214
    outer loop
      vertex 0 2.77785 4.15735
      vertex 0 0.975451 4.90393
      vertex 1.06304 2.5664 4.15735
    endloop
  endfacet
  facet normal 0.075901 -0.381579 0.921214
    outer loop
      vertex 0 -0.975451 4.90393
      vertex 0 -2.77785 4.15735
      vertex 1.06304 -2.5664 4.15735
    endloop
  endfacet
  facet normal 0.180745 -0.908663 0.376381
    outer loop
      vertex 1.59095 -3.84089 2.77785
      vertex 0 -4.15735 2.77785
      vertex 1.87665 -4.53064 0.975451
    endloop
  endfacet
  facet normal -0.139282 -0.700214 0.700215
    outer loop
      vertex -1.06304 -2.5664 4.15735
      vertex -1.59095 -3.84089 2.77785
      vertex 0 -2.77785 4.15735
    endloop
  endfacet
  facet normal -0.139281 -0.700214 0.700214
    outer loop
      vertex 0 -2.77785 4.15735
      vertex -1.59095 -3.84089 2.77785
      vertex 0 -4.15735 2.77785
    endloop
  endfacet
  facet normal -0.216148 0.323487 0.921215
    outer loop
      vertex -0.373289 0.901199 4.90393
      vertex -1.96424 1.96424 4.15735
      vertex -0.689748 0.689748 4.90393
    endloop
  endfacet
  facet normal 0.980785 -0 0.195091
    outer loop
      vertex 4.6194 7 1.91342
      vertex 5 9 0
      vertex 4.6194 9 1.91342
    endloop
  endfacet
  facet normal 0.980785 0 0.195091
    outer loop
      vertex 5 9 0
      vertex 4.6194 7 1.91342
      vertex 5 7 0
    endloop
  endfacet
  facet normal 0.83147 -0 0.55557
    outer loop
      vertex 3.53553 7 3.53553
      vertex 4.6194 9 1.91342
      vertex 3.53553 9 3.53553
    endloop
  endfacet
  facet normal 0.83147 0 0.55557
    outer loop
      vertex 4.6194 9 1.91342
      vertex 3.53553 7 3.53553
      vertex 4.6194 7 1.91342
    endloop
  endfacet
  facet normal -0.980785 0 0.195091
    outer loop
      vertex -5 7 0
      vertex -4.6194 9 1.91342
      vertex -5 9 0
    endloop
  endfacet
  facet normal -0.980785 0 0.195091
    outer loop
      vertex -4.6194 9 1.91342
      vertex -5 7 0
      vertex -4.6194 7 1.91342
    endloop
  endfacet
  facet normal -0.83147 0 -0.55557
    outer loop
      vertex -3.53553 9 -3.53553
      vertex -4.6194 7 -1.91342
      vertex -4.6194 9 -1.91342
    endloop
  endfacet
  facet normal -0.83147 0 -0.55557
    outer loop
      vertex -4.6194 7 -1.91342
      vertex -3.53553 9 -3.53553
      vertex -3.53553 7 -3.53553
    endloop
  endfacet
  facet normal 0.195091 0 0.980785
    outer loop
      vertex 0 9 5
      vertex 1.91342 7 4.6194
      vertex 1.91342 9 4.6194
    endloop
  endfacet
  facet normal 0.195091 0 0.980785
    outer loop
      vertex 1.91342 7 4.6194
      vertex 0 9 5
      vertex 0 7 5
    endloop
  endfacet
  facet normal 2.49208e-07 1 -1.25285e-06
    outer loop
      vertex 1.91342 9 -4.6194
      vertex 0 9 -5
      vertex 3.53553 9 -3.53553
    endloop
  endfacet
  facet normal -0.195091 0 -0.980785
    outer loop
      vertex -1.91342 7 -4.6194
      vertex 0 9 -5
      vertex 0 7 -5
    endloop
  endfacet
  facet normal -0.195091 0 -0.980785
    outer loop
      vertex 0 9 -5
      vertex -1.91342 7 -4.6194
      vertex -1.91342 9 -4.6194
    endloop
  endfacet
  facet normal 0 1 -6.5121e-07
    outer loop
      vertex 0 9 -5
      vertex -3.53553 9 -3.53553
      vertex 3.53553 9 -3.53553
    endloop
  endfacet
  facet normal 0.980785 0 -0.195091
    outer loop
      vertex 5 7 0
      vertex 4.6194 9 -1.91342
      vertex 5 9 0
    endloop
  endfacet
  facet normal 0.980785 0 -0.195091
    outer loop
      vertex 4.6194 9 -1.91342
      vertex 5 7 0
      vertex 4.6194 7 -1.91342
    endloop
  endfacet
  facet normal 1.25285e-06 -1 -2.49208e-07
    outer loop
      vertex 5 7 0
      vertex 3.53553 7 -3.53553
      vertex 4.6194 7 -1.91342
    endloop
  endfacet
  facet normal -0.55557 0 -0.83147
    outer loop
      vertex -3.53553 7 -3.53553
      vertex -1.91342 9 -4.6194
      vertex -1.91342 7 -4.6194
    endloop
  endfacet
  facet normal -0.55557 0 -0.83147
    outer loop
      vertex -1.91342 9 -4.6194
      vertex -3.53553 7 -3.53553
      vertex -3.53553 9 -3.53553
    endloop
  endfacet
  facet normal 0.83147 0 -0.55557
    outer loop
      vertex 4.6194 7 -1.91342
      vertex 3.53553 9 -3.53553
      vertex 4.6194 9 -1.91342
    endloop
  endfacet
  facet normal 0.83147 0 -0.55557
    outer loop
      vertex 3.53553 9 -3.53553
      vertex 4.6194 7 -1.91342
      vertex 3.53553 7 -3.53553
    endloop
  endfacet
  facet normal -2.01847e-07 -1 1.3487e-07
    outer loop
      vertex -3.53553 7 3.53553
      vertex -4.6194 7 1.91342
      vertex -3.53553 7 -3.53553
    endloop
  endfacet
  facet normal -0.55557 0 0.83147
    outer loop
      vertex -3.53553 9 3.53553
      vertex -1.91342 7 4.6194
      vertex -1.91342 9 4.6194
    endloop
  endfacet
  facet normal -0.55557 0 0.83147
    outer loop
      vertex -1.91342 7 4.6194
      vertex -3.53553 9 3.53553
      vertex -3.53553 7 3.53553
    endloop
  endfacet
  facet normal 4.39942e-07 -1 8.751e-08
    outer loop
      vertex 4.6194 7 1.91342
      vertex 3.53553 7 -3.53553
      vertex 5 7 0
    endloop
  endfacet
  facet normal 2.422e-08 -1 1.21762e-07
    outer loop
      vertex 1.91342 7 4.6194
      vertex 0 7 5
      vertex 3.53553 7 -3.53553
    endloop
  endfacet
  facet normal 2.01847e-07 -1 1.3487e-07
    outer loop
      vertex 3.53553 7 3.53553
      vertex 3.53553 7 -3.53553
      vertex 4.6194 7 1.91342
    endloop
  endfacet
  facet normal 0 -1 0
    outer loop
      vertex -1.91342 7 -4.6194
      vertex 3.53553 7 -3.53553
      vertex -3.53553 7 -3.53553
    endloop
  endfacet
  facet normal 0 -1 0
    outer loop
      vertex -1.91342 7 -4.6194
      vertex 1.91342 7 -4.6194
      vertex 3.53553 7 -3.53553
    endloop
  endfacet
  facet normal -0 -1 0
    outer loop
      vertex 1.91342 7 -4.6194
      vertex -1.91342 7 -4.6194
      vertex 0 7 -5
    endloop
  endfacet
  facet normal -2.49208e-07 1 -1.25285e-06
    outer loop
      vertex -1.91342 9 -4.6194
      vertex -3.53553 9 -3.53553
      vertex 0 9 -5
    endloop
  endfacet
  facet normal -1.25285e-06 -1 -2.49208e-07
    outer loop
      vertex -3.53553 7 -3.53553
      vertex -5 7 0
      vertex -4.6194 7 -1.91342
    endloop
  endfacet
  facet normal -0.980785 0 -0.195091
    outer loop
      vertex -4.6194 7 -1.91342
      vertex -5 9 0
      vertex -4.6194 9 -1.91342
    endloop
  endfacet
  facet normal -0.980785 -0 -0.195091
    outer loop
      vertex -5 9 0
      vertex -4.6194 7 -1.91342
      vertex -5 7 0
    endloop
  endfacet
  facet normal -3.73394e-08 -1 1.14919e-07
    outer loop
      vertex 0 7 5
      vertex -0.809016 7 0.587785
      vertex 0.309016 7 0.951056
    endloop
  endfacet
  facet normal 4.04143e-08 -1 1.24382e-07
    outer loop
      vertex -0.809016 7 -0.587785
      vertex -3.53553 7 -3.53553
      vertex 0.309016 7 -0.951056
    endloop
  endfacet
  facet normal 1.74889e-07 -1 0
    outer loop
      vertex -0.809016 7 0.587785
      vertex -3.53553 7 -3.53553
      vertex -0.809016 7 -0.587785
    endloop
  endfacet
  facet normal 1.58447e-08 -1 1.05167e-07
    outer loop
      vertex -3.53553 7 -3.53553
      vertex -0.809016 7 0.587785
      vertex 0 7 5
    endloop
  endfacet
  facet normal 1.8112e-07 -1 1.31591e-07
    outer loop
      vertex 1 7 0
      vertex 0 7 5
      vertex 0.309016 7 0.951056
    endloop
  endfacet
  facet normal -7.63839e-08 -1 8.00907e-08
    outer loop
      vertex 1 7 0
      vertex 3.53553 7 -3.53553
      vertex 0 7 5
    endloop
  endfacet
  facet normal -9.34196e-08 -1 6.78734e-08
    outer loop
      vertex 0.309016 7 -0.951056
      vertex 3.53553 7 -3.53553
      vertex 1 7 0
    endloop
  endfacet
  facet normal 0 -1 1.845e-07
    outer loop
      vertex 3.53553 7 -3.53553
      vertex 0.309016 7 -0.951056
      vertex -3.53553 7 -3.53553
    endloop
  endfacet
  facet normal 0.55557 0 -0.83147
    outer loop
      vertex 1.91342 7 -4.6194
      vertex 3.53553 9 -3.53553
      vertex 3.53553 7 -3.53553
    endloop
  endfacet
  facet normal 0.55557 0 -0.83147
    outer loop
      vertex 3.53553 9 -3.53553
      vertex 1.91342 7 -4.6194
      vertex 1.91342 9 -4.6194
    endloop
  endfacet
  facet normal 9.01171e-08 -1 1.3487e-07
    outer loop
      vertex 3.53553 7 3.53553
      vertex 1.91342 7 4.6194
      vertex 3.53553 7 -3.53553
    endloop
  endfacet
  facet normal 0.55557 0 0.83147
    outer loop
      vertex 1.91342 9 4.6194
      vertex 3.53553 7 3.53553
      vertex 3.53553 9 3.53553
    endloop
  endfacet
  facet normal 0.55557 0 0.83147
    outer loop
      vertex 3.53553 7 3.53553
      vertex 1.91342 9 4.6194
      vertex 1.91342 7 4.6194
    endloop
  endfacet
  facet normal -4.39942e-07 -1 8.751e-08
    outer loop
      vertex -4.6194 7 1.91342
      vertex -5 7 0
      vertex -3.53553 7 -3.53553
    endloop
  endfacet
  facet normal -0.83147 0 0.55557
    outer loop
      vertex -4.6194 7 1.91342
      vertex -3.53553 9 3.53553
      vertex -4.6194 9 1.91342
    endloop
  endfacet
  facet normal -0.83147 0 0.55557
    outer loop
      vertex -3.53553 9 3.53553
      vertex -4.6194 7 1.91342
      vertex -3.53553 7 3.53553
    endloop
  endfacet
  facet normal -0.195091 0 0.980785
    outer loop
      vertex -1.91342 9 4.6194
      vertex 0 7 5
      vertex 0 9 5
    endloop
  endfacet
  facet normal -0.195091 0 0.980785
    outer loop
      vertex 0 7 5
      vertex -1.91342 9 4.6194
      vertex -1.91342 7 4.6194
    endloop
  endfacet
  facet normal 0 1 0
    outer loop
      vertex 1.91342 9 4.6194
      vertex -1.91342 9 4.6194
      vertex 0 9 5
    endloop
  endfacet
  facet normal 0 1 0
    outer loop
      vertex 3.53553 9 3.53553
      vertex -1.91342 9 4.6194
      vertex 1.91342 9 4.6194
    endloop
  endfacet
  facet normal 0 1 0
    outer loop
      vertex 3.53553 9 3.53553
      vertex -3.53553 9 3.53553
      vertex -1.91342 9 4.6194
    endloop
  endfacet
  facet normal 0 1 0
    outer loop
      vertex 4.6194 9 1.91342
      vertex -3.53553 9 3.53553
      vertex 3.53553 9 3.53553
    endloop
  endfacet
  facet normal 0 1 0
    outer loop
      vertex 4.6194 9 1.91342
      vertex -4.6194 9 1.91342
      vertex -3.53553 9 3.53553
    endloop
  endfacet
  facet normal 0 1 0
    outer loop
      vertex 5 9 0
      vertex -4.6194 9 1.91342
      vertex 4.6194 9 1.91342
    endloop
  endfacet
  facet normal 0 1 0
    outer loop
      vertex 5 9 0
      vertex -5 9 0
      vertex -4.6194 9 1.91342
    endloop
  endfacet
  facet normal 0 1 -0
    outer loop
      vertex 4.6194 9 -1.91342
      vertex -5 9 0
      vertex 5 9 0
    endloop
  endfacet
  facet normal 0 1 0
    outer loop
      vertex 4.6194 9 -1.91342
      vertex -4.6194 9 -1.91342
      vertex -5 9 0
    endloop
  endfacet
  facet normal 0 1 -0
    outer loop
      vertex 3.53553 9 -3.53553
      vertex -4.6194 9 -1.91342
      vertex 4.6194 9 -1.91342
    endloop
  endfacet
  facet normal 0 1 0
    outer loop
      vertex -4.6194 9 -1.91342
      vertex 3.53553 9 -3.53553
      vertex -3.53553 9 -3.53553
    endloop
  endfacet
  facet normal 0.195091 0 -0.980785
    outer loop
      vertex 0 7 -5
      vertex 1.91342 9 -4.6194
      vertex 1.91342 7 -4.6194
    endloop
  endfacet
  facet normal 0.195091 0 -0.980785
    outer loop
      vertex 1.91342 9 -4.6194
      vertex 0 7 -5
      vertex 0 9 -5
    endloop
  endfacet
  facet normal -2.422e-08 -1 1.21762e-07
    outer loop
      vertex -1.91342 7 4.6194
      vertex -3.53553 7 -3.53553
      vertex 0 7 5
    endloop
  endfacet
  facet normal -9.01171e-08 -1 1.3487e-07
    outer loop
      vertex -3.53553 7 3.53553
      vertex -3.53553 7 -3.53553
      vertex -1.91342 7 4.6194
    endloop
  endfacet
  facet normal 0.980785 -0 0.195091
    outer loop
      vertex 4.6194 -9 1.91342
      vertex 5 -7 0
      vertex 4.6194 -7 1.91342
    endloop
  endfacet
  facet normal 0.980785 0 0.195091
    outer loop
      vertex 5 -7 0
      vertex 4.6194 -9 1.91342
      vertex 5 -9 0
    endloop
  endfacet
  facet normal -1.25285e-06 1 2.49208e-07
    outer loop
      vertex -3.53553 -7 3.53553
      vertex -5 -7 0
      vertex -4.6194 -7 1.91342
    endloop
  endfacet
  facet normal 0 1 0
    outer loop
      vertex 1.91342 -7 4.6194
      vertex -1.91342 -7 4.6194
      vertex 0 -7 5
    endloop
  endfacet
  facet normal 0 1 0
    outer loop
      vertex 3.53553 -7 3.53553
      vertex -1.91342 -7 4.6194
      vertex 1.91342 -7 4.6194
    endloop
  endfacet
  facet normal 0 1 0
    outer loop
      vertex -1.91342 -7 4.6194
      vertex 3.53553 -7 3.53553
      vertex -3.53553 -7 3.53553
    endloop
  endfacet
  facet normal -0.980785 0 0.195091
    outer loop
      vertex -5 -9 0
      vertex -4.6194 -7 1.91342
      vertex -5 -7 0
    endloop
  endfacet
  facet normal -0.980785 0 0.195091
    outer loop
      vertex -4.6194 -7 1.91342
      vertex -5 -9 0
      vertex -4.6194 -9 1.91342
    endloop
  endfacet
  facet normal -0.980785 0 -0.195091
    outer loop
      vertex -4.6194 -9 -1.91342
      vertex -5 -7 0
      vertex -4.6194 -7 -1.91342
    endloop
  endfacet
  facet normal -0.980785 -0 -0.195091
    outer loop
      vertex -5 -7 0
      vertex -4.6194 -9 -1.91342
      vertex -5 -9 0
    endloop
  endfacet
  facet normal 0 1 -1.845e-07
    outer loop
      vertex 3.53553 -7 3.53553
      vertex 0.309016 -7 0.951056
      vertex -3.53553 -7 3.53553
    endloop
  endfacet
  facet normal -9.34196e-08 1 -6.78734e-08
    outer loop
      vertex 3.53553 -7 3.53553
      vertex 1 -7 0
      vertex 0.309016 -7 0.951056
    endloop
  endfacet
  facet normal 1.8112e-07 1 -1.31591e-07
    outer loop
      vertex 1 -7 0
      vertex 0 -7 -5
      vertex 0.309016 -7 -0.951056
    endloop
  endfacet
  facet normal -7.63839e-08 1 -8.00907e-08
    outer loop
      vertex 0 -7 -5
      vertex 1 -7 0
      vertex 3.53553 -7 3.53553
    endloop
  endfacet
  facet normal 4.04143e-08 1 -1.24382e-07
    outer loop
      vertex -0.809016 -7 0.587785
      vertex -3.53553 -7 3.53553
      vertex 0.309016 -7 0.951056
    endloop
  endfacet
  facet normal 1.74889e-07 1 -0
    outer loop
      vertex -0.809016 -7 -0.587785
      vertex -3.53553 -7 3.53553
      vertex -0.809016 -7 0.587785
    endloop
  endfacet
  facet normal 1.58447e-08 1 -1.05167e-07
    outer loop
      vertex -0.809016 -7 -0.587785
      vertex 0 -7 -5
      vertex -3.53553 -7 3.53553
    endloop
  endfacet
  facet normal -3.73394e-08 1 -1.14919e-07
    outer loop
      vertex 0 -7 -5
      vertex -0.809016 -7 -0.587785
      vertex 0.309016 -7 -0.951056
    endloop
  endfacet
  facet normal 0.195091 0 0.980785
    outer loop
      vertex 0 -7 5
      vertex 1.91342 -9 4.6194
      vertex 1.91342 -7 4.6194
    endloop
  endfacet
  facet normal 0.195091 0 0.980785
    outer loop
      vertex 1.91342 -9 4.6194
      vertex 0 -7 5
      vertex 0 -9 5
    endloop
  endfacet
  facet normal 0 -1 0
    outer loop
      vertex -4.6194 -9 1.91342
      vertex 3.53553 -9 3.53553
      vertex -3.53553 -9 3.53553
    endloop
  endfacet
  facet normal 0 -1 0
    outer loop
      vertex -4.6194 -9 1.91342
      vertex 4.6194 -9 1.91342
      vertex 3.53553 -9 3.53553
    endloop
  endfacet
  facet normal 0 -1 0
    outer loop
      vertex -5 -9 0
      vertex 4.6194 -9 1.91342
      vertex -4.6194 -9 1.91342
    endloop
  endfacet
  facet normal 0 -1 0
    outer loop
      vertex -5 -9 0
      vertex 5 -9 0
      vertex 4.6194 -9 1.91342
    endloop
  endfacet
  facet normal 0 -1 0
    outer loop
      vertex -4.6194 -9 -1.91342
      vertex 5 -9 0
      vertex -5 -9 0
    endloop
  endfacet
  facet normal 0 -1 0
    outer loop
      vertex -4.6194 -9 -1.91342
      vertex 4.6194 -9 -1.91342
      vertex 5 -9 0
    endloop
  endfacet
  facet normal 0 -1 0
    outer loop
      vertex -3.53553 -9 -3.53553
      vertex 4.6194 -9 -1.91342
      vertex -4.6194 -9 -1.91342
    endloop
  endfacet
  facet normal 0 -1 0
    outer loop
      vertex -3.53553 -9 -3.53553
      vertex 3.53553 -9 -3.53553
      vertex 4.6194 -9 -1.91342
    endloop
  endfacet
  facet normal 0 -1 0
    outer loop
      vertex -1.91342 -9 -4.6194
      vertex 3.53553 -9 -3.53553
      vertex -3.53553 -9 -3.53553
    endloop
  endfacet
  facet normal 0 -1 0
    outer loop
      vertex -1.91342 -9 -4.6194
      vertex 1.91342 -9 -4.6194
      vertex 3.53553 -9 -3.53553
    endloop
  endfacet
  facet normal -0 -1 0
    outer loop
      vertex 1.91342 -9 -4.6194
      vertex -1.91342 -9 -4.6194
      vertex 0 -9 -5
    endloop
  endfacet
  facet normal -0.55557 0 0.83147
    outer loop
      vertex -3.53553 -7 3.53553
      vertex -1.91342 -9 4.6194
      vertex -1.91342 -7 4.6194
    endloop
  endfacet
  facet normal -0.55557 0 0.83147
    outer loop
      vertex -1.91342 -9 4.6194
      vertex -3.53553 -7 3.53553
      vertex -3.53553 -9 3.53553
    endloop
  endfacet
  facet normal 1.25285e-06 1 2.49208e-07
    outer loop
      vertex 5 -7 0
      vertex 3.53553 -7 3.53553
      vertex 4.6194 -7 1.91342
    endloop
  endfacet
  facet normal 0.55557 0 -0.83147
    outer loop
      vertex 1.91342 -9 -4.6194
      vertex 3.53553 -7 -3.53553
      vertex 3.53553 -9 -3.53553
    endloop
  endfacet
  facet normal 0.55557 0 -0.83147
    outer loop
      vertex 3.53553 -7 -3.53553
      vertex 1.91342 -9 -4.6194
      vertex 1.91342 -7 -4.6194
    endloop
  endfacet
  facet normal 0.195091 0 -0.980785
    outer loop
      vertex 0 -9 -5
      vertex 1.91342 -7 -4.6194
      vertex 1.91342 -9 -4.6194
    endloop
  endfacet
  facet normal 0.195091 0 -0.980785
    outer loop
      vertex 1.91342 -7 -4.6194
      vertex 0 -9 -5
      vertex 0 -7 -5
    endloop
  endfacet
  facet normal -2.01847e-07 1 -1.3487e-07
    outer loop
      vertex -3.53553 -7 -3.53553
      vertex -4.6194 -7 -1.91342
      vertex -3.53553 -7 3.53553
    endloop
  endfacet
  facet normal 0.83147 -0 0.55557
    outer loop
      vertex 3.53553 -9 3.53553
      vertex 4.6194 -7 1.91342
      vertex 3.53553 -7 3.53553
    endloop
  endfacet
  facet normal 0.83147 0 0.55557
    outer loop
      vertex 4.6194 -7 1.91342
      vertex 3.53553 -9 3.53553
      vertex 4.6194 -9 1.91342
    endloop
  endfacet
  facet normal 0 -1 6.5121e-07
    outer loop
      vertex 0 -9 5
      vertex -3.53553 -9 3.53553
      vertex 3.53553 -9 3.53553
    endloop
  endfacet
  facet normal 2.01847e-07 1 -1.3487e-07
    outer loop
      vertex 4.6194 -7 -1.91342
      vertex 3.53553 -7 -3.53553
      vertex 3.53553 -7 3.53553
    endloop
  endfacet
  facet normal 9.01171e-08 1 -1.3487e-07
    outer loop
      vertex 3.53553 -7 -3.53553
      vertex 1.91342 -7 -4.6194
      vertex 3.53553 -7 3.53553
    endloop
  endfacet
  facet normal 2.49208e-07 -1 1.25285e-06
    outer loop
      vertex 1.91342 -9 4.6194
      vertex 0 -9 5
      vertex 3.53553 -9 3.53553
    endloop
  endfacet
  facet normal 2.422e-08 1 -1.21762e-07
    outer loop
      vertex 1.91342 -7 -4.6194
      vertex 0 -7 -5
      vertex 3.53553 -7 3.53553
    endloop
  endfacet
  facet normal -4.39942e-07 1 -8.751e-08
    outer loop
      vertex -4.6194 -7 -1.91342
      vertex -5 -7 0
      vertex -3.53553 -7 3.53553
    endloop
  endfacet
  facet normal -0.195091 0 -0.980785
    outer loop
      vertex -1.91342 -9 -4.6194
      vertex 0 -7 -5
      vertex 0 -9 -5
    endloop
  endfacet
  facet normal -0.195091 0 -0.980785
    outer loop
      vertex 0 -7 -5
      vertex -1.91342 -9 -4.6194
      vertex -1.91342 -7 -4.6194
    endloop
  endfacet
  facet normal -0.83147 0 0.55557
    outer loop
      vertex -4.6194 -9 1.91342
      vertex -3.53553 -7 3.53553
      vertex -4.6194 -7 1.91342
    endloop
  endfacet
  facet normal -0.83147 0 0.55557
    outer loop
      vertex -3.53553 -7 3.53553
      vertex -4.6194 -9 1.91342
      vertex -3.53553 -9 3.53553
    endloop
  endfacet
  facet normal -2.49208e-07 -1 1.25285e-06
    outer loop
      vertex -1.91342 -9 4.6194
      vertex -3.53553 -9 3.53553
      vertex 0 -9 5
    endloop
  endfacet
  facet normal -0.195091 0 0.980785
    outer loop
      vertex -1.91342 -7 4.6194
      vertex 0 -9 5
      vertex 0 -7 5
    endloop
  endfacet
  facet normal -0.195091 0 0.980785
    outer loop
      vertex 0 -9 5
      vertex -1.91342 -7 4.6194
      vertex -1.91342 -9 4.6194
    endloop
  endfacet
  facet normal 4.39942e-07 1 -8.751e-08
    outer loop
      vertex 4.6194 -7 -1.91342
      vertex 3.53553 -7 3.53553
      vertex 5 -7 0
    endloop
  endfacet
  facet normal -9.01171e-08 1 -1.3487e-07
    outer loop
      vertex -1.91342 -7 -4.6194
      vertex -3.53553 -7 -3.53553
      vertex -3.53553 -7 3.53553
    endloop
  endfacet
  facet normal -2.422e-08 1 -1.21762e-07
    outer loop
      vertex -1.91342 -7 -4.6194
      vertex -3.53553 -7 3.53553
      vertex 0 -7 -5
    endloop
  endfacet
  facet normal -0.55557 0 -0.83147
    outer loop
      vertex -3.53553 -9 -3.53553
      vertex -1.91342 -7 -4.6194
      vertex -1.91342 -9 -4.6194
    endloop
  endfacet
  facet normal -0.55557 0 -0.83147
    outer loop
      vertex -1.91342 -7 -4.6194
      vertex -3.53553 -9 -3.53553
      vertex -3.53553 -7 -3.53553
    endloop
  endfacet
  facet normal 0.55557 0 0.83147
    outer loop
      vertex 1.91342 -7 4.6194
      vertex 3.53553 -9 3.53553
      vertex 3.53553 -7 3.53553
    endloop
  endfacet
  facet normal 0.55557 0 0.83147
    outer loop
      vertex 3.53553 -9 3.53553
      vertex 1.91342 -7 4.6194
      vertex 1.91342 -9 4.6194
    endloop
  endfacet
  facet normal 0.83147 0 -0.55557
    outer loop
      vertex 4.6194 -9 -1.91342
      vertex 3.53553 -7 -3.53553
      vertex 4.6194 -7 -1.91342
    endloop
  endfacet
  facet normal 0.83147 0 -0.55557
    outer loop
      vertex 3.53553 -7 -3.53553
      vertex 4.6194 -9 -1.91342
      vertex 3.53553 -9 -3.53553
    endloop
  endfacet
  facet normal 0.980785 0 -0.195091
    outer loop
      vertex 5 -9 0
      vertex 4.6194 -7 -1.91342
      vertex 5 -7 0
    endloop
  endfacet
  facet normal 0.980785 0 -0.195091
    outer loop
      vertex 4.6194 -7 -1.91342
      vertex 5 -9 0
      vertex 4.6194 -9 -1.91342
    endloop
  endfacet
  facet normal -0.83147 0 -0.55557
    outer loop
      vertex -3.53553 -9 -3.53553
      vertex -4.6194 -7 -1.91342
      vertex -3.53553 -7 -3.53553
    endloop
  endfacet
  facet normal -0.83147 -0 -0.55557
    outer loop
      vertex -4.6194 -7 -1.91342
      vertex -3.53553 -9 -3.53553
      vertex -4.6194 -9 -1.91342
    endloop
  endfacet
  facet normal 0.809017 0 0.587786
    outer loop
      vertex 1 -7 0
      vertex 0.309016 -4.84246 0.951056
      vertex 0.309016 -7 0.951056
    endloop
  endfacet
  facet normal 0.809017 0 0.587786
    outer loop
      vertex 0.309016 -4.84246 0.951056
      vertex 1 -7 0
      vertex 1 -4.70501 0
    endloop
  endfacet
  facet normal 0.809017 -0 0.587786
    outer loop
      vertex 0.309016 4.84246 0.951056
      vertex 1 7 0
      vertex 0.309016 7 0.951056
    endloop
  endfacet
  facet normal 0.809017 0 0.587786
    outer loop
      vertex 1 7 0
      vertex 0.309016 4.84246 0.951056
      vertex 1 4.70501 0
    endloop
  endfacet
  facet normal -0.309018 0 0.951056
    outer loop
      vertex 0 -4.90393 0.850651
      vertex 0.309016 -7 0.951056
      vertex 0.309016 -4.84246 0.951056
    endloop
  endfacet
  facet normal -0.309018 0 0.951056
    outer loop
      vertex -0.809016 -7 0.587785
      vertex 0 -4.90393 0.850651
      vertex -0.809016 -4.743 0.587785
    endloop
  endfacet
  facet normal -0.309018 -1.25494e-08 0.951056
    outer loop
      vertex 0 -4.90393 0.850651
      vertex -0.809016 -7 0.587785
      vertex 0.309016 -7 0.951056
    endloop
  endfacet
  facet normal -0.309018 0 0.951056
    outer loop
      vertex 0.309016 7 0.951056
      vertex 0 4.90393 0.850651
      vertex 0.309016 4.84246 0.951056
    endloop
  endfacet
  facet normal -0.309018 1.25494e-08 0.951056
    outer loop
      vertex -0.809016 7 0.587785
      vertex 0 4.90393 0.850651
      vertex 0.309016 7 0.951056
    endloop
  endfacet
  facet normal -0.309018 0 0.951056
    outer loop
      vertex 0 4.90393 0.850651
      vertex -0.809016 7 0.587785
      vertex -0.809016 4.743 0.587785
    endloop
  endfacet
  facet normal -1 0 0
    outer loop
      vertex -0.809016 -7 -0.587785
      vertex -0.809016 -4.743 0.587785
      vertex -0.809016 -4.743 -0.587785
    endloop
  endfacet
  facet normal -1 -0 0
    outer loop
      vertex -0.809016 -4.743 0.587785
      vertex -0.809016 -7 -0.587785
      vertex -0.809016 -7 0.587785
    endloop
  endfacet
  facet normal -1 0 0
    outer loop
      vertex -0.809016 4.743 -0.587785
      vertex -0.809016 7 0.587785
      vertex -0.809016 7 -0.587785
    endloop
  endfacet
  facet normal -1 -0 0
    outer loop
      vertex -0.809016 7 0.587785
      vertex -0.809016 4.743 -0.587785
      vertex -0.809016 4.743 0.587785
    endloop
  endfacet
  facet normal -0.309018 0 -0.951056
    outer loop
      vertex 0.309016 -7 -0.951056
      vertex 0 -4.90393 -0.850651
      vertex 0.309016 -4.84246 -0.951056
    endloop
  endfacet
  facet normal -0.309018 -1.25494e-08 -0.951056
    outer loop
      vertex -0.809016 -7 -0.587785
      vertex 0 -4.90393 -0.850651
      vertex 0.309016 -7 -0.951056
    endloop
  endfacet
  facet normal -0.309018 0 -0.951056
    outer loop
      vertex 0 -4.90393 -0.850651
      vertex -0.809016 -7 -0.587785
      vertex -0.809016 -4.743 -0.587785
    endloop
  endfacet
  facet normal -0.309018 0 -0.951056
    outer loop
      vertex 0 4.90393 -0.850651
      vertex 0.309016 7 -0.951056
      vertex 0.309016 4.84246 -0.951056
    endloop
  endfacet
  facet normal -0.309018 -0 -0.951056
    outer loop
      vertex -0.809016 7 -0.587785
      vertex 0 4.90393 -0.850651
      vertex -0.809016 4.743 -0.587785
    endloop
  endfacet
  facet normal -0.309018 1.25494e-08 -0.951056
    outer loop
      vertex 0 4.90393 -0.850651
      vertex -0.809016 7 -0.587785
      vertex 0.309016 7 -0.951056
    endloop
  endfacet
  facet normal 0.809017 0 -0.587786
    outer loop
      vertex 1 -7 0
      vertex 0.309016 -4.84246 -0.951056
      vertex 1 -4.70501 0
    endloop
  endfacet
  facet normal 0.809017 0 -0.587786
    outer loop
      vertex 0.309016 -4.84246 -0.951056
      vertex 1 -7 0
      vertex 0.309016 -7 -0.951056
    endloop
  endfacet
  facet normal 0.809017 0 -0.587786
    outer loop
      vertex 1 7 0
      vertex 0.309016 4.84246 -0.951056
      vertex 0.309016 7 -0.951056
    endloop
  endfacet
  facet normal 0.809017 0 -0.587786
    outer loop
      vertex 0.309016 4.84246 -0.951056
      vertex 1 7 0
      vertex 1 4.70501 0
    endloop
  endfacet
  facet normal 0 0.433884 -0.900969
    outer loop
      vertex 5.5 1.56366 -1.24698
      vertex 4.48012 1.03208 -1.50297
      vertex 4.48042 1.56366 -1.24698
    endloop
  endfacet
  facet normal 2.63874e-07 0.433884 -0.900969
    outer loop
      vertex 5.5 0 -2
      vertex 4.48012 1.03208 -1.50297
      vertex 5.5 1.56366 -1.24698
    endloop
  endfacet
  facet normal 3.15753e-07 0.433884 -0.900969
    outer loop
      vertex 4.48012 1.03208 -1.50297
      vertex 5.5 0 -2
      vertex 4.47954 0 -2
    endloop
  endfacet
  facet normal 1 0 0
    outer loop
      vertex 5.5 0.867767 1.80194
      vertex 5.5 1.56366 -1.24698
      vertex 5.5 1.94986 0.445042
    endloop
  endfacet
  facet normal 1 0 0
    outer loop
      vertex 5.5 0.867767 1.80194
      vertex 5.5 0 -2
      vertex 5.5 1.56366 -1.24698
    endloop
  endfacet
  facet normal 1 -0 0
    outer loop
      vertex 5.5 -0.867767 1.80194
      vertex 5.5 0 -2
      vertex 5.5 0.867767 1.80194
    endloop
  endfacet
  facet normal 1 0 0
    outer loop
      vertex 5.5 -0.867767 1.80194
      vertex 5.5 -1.56366 -1.24698
      vertex 5.5 0 -2
    endloop
  endfacet
  facet normal 1 0 -0
    outer loop
      vertex 5.5 -1.56366 -1.24698
      vertex 5.5 -0.867767 1.80194
      vertex 5.5 -1.94986 0.445042
    endloop
  endfacet
  facet normal 0 0 1
    outer loop
      vertex 5.5 0.867767 1.80194
      vertex 4.56158 0 1.80194
      vertex 5.5 -0.867767 1.80194
    endloop
  endfacet
  facet normal 0 -0 1
    outer loop
      vertex 4.56158 0 1.80194
      vertex 5.5 0.867767 1.80194
      vertex 4.38897 0.867767 1.80194
    endloop
  endfacet
  facet normal 0 0 1
    outer loop
      vertex 5.5 -0.867767 1.80194
      vertex 4.56158 0 1.80194
      vertex 4.38897 -0.867767 1.80194
    endloop
  endfacet
  facet normal 0 0.974928 -0.222521
    outer loop
      vertex 5.5 1.94986 0.445042
      vertex 4.53064 1.87665 0.12431
      vertex 4.48172 1.94986 0.445042
    endloop
  endfacet
  facet normal 9.22345e-09 0.974928 -0.222521
    outer loop
      vertex 5.5 1.94986 0.445042
      vertex 4.58057 1.62564 -0.975451
      vertex 4.53064 1.87665 0.12431
    endloop
  endfacet
  facet normal -3.32046e-08 0.974928 -0.222521
    outer loop
      vertex 5.5 1.56366 -1.24698
      vertex 4.58057 1.62564 -0.975451
      vertex 5.5 1.94986 0.445042
    endloop
  endfacet
  facet normal 0 0.974928 -0.222521
    outer loop
      vertex 4.58057 1.62564 -0.975451
      vertex 5.5 1.56366 -1.24698
      vertex 4.48042 1.56366 -1.24698
    endloop
  endfacet
  facet normal 0 -0.781831 0.62349
    outer loop
      vertex 4.60021 -1.52687 0.975451
      vertex 5.5 -0.867767 1.80194
      vertex 4.38897 -0.867767 1.80194
    endloop
  endfacet
  facet normal -7.55815e-09 -0.781831 0.62349
    outer loop
      vertex 5.5 -1.94986 0.445042
      vertex 4.60021 -1.52687 0.975451
      vertex 4.53064 -1.87665 0.536838
    endloop
  endfacet
  facet normal 0 -0.781831 0.62349
    outer loop
      vertex 5.5 -1.94986 0.445042
      vertex 4.53064 -1.87665 0.536838
      vertex 4.48172 -1.94986 0.445042
    endloop
  endfacet
  facet normal -4.08734e-08 -0.781831 0.62349
    outer loop
      vertex 4.60021 -1.52687 0.975451
      vertex 5.5 -1.94986 0.445042
      vertex 5.5 -0.867767 1.80194
    endloop
  endfacet
  facet normal 0 0.781831 0.62349
    outer loop
      vertex 5.5 0.867767 1.80194
      vertex 4.60021 1.52687 0.975451
      vertex 4.38897 0.867767 1.80194
    endloop
  endfacet
  facet normal -4.08734e-08 0.781831 0.62349
    outer loop
      vertex 5.5 1.94986 0.445042
      vertex 4.60021 1.52687 0.975451
      vertex 5.5 0.867767 1.80194
    endloop
  endfacet
  facet normal -7.55815e-09 0.781831 0.62349
    outer loop
      vertex 4.60021 1.52687 0.975451
      vertex 5.5 1.94986 0.445042
      vertex 4.53064 1.87665 0.536838
    endloop
  endfacet
  facet normal 0 0.781831 0.62349
    outer loop
      vertex 4.53064 1.87665 0.536838
      vertex 5.5 1.94986 0.445042
      vertex 4.48172 1.94986 0.445042
    endloop
  endfacet
  facet normal 0 -0.974928 -0.222521
    outer loop
      vertex 4.53064 -1.87665 0.12431
      vertex 5.5 -1.94986 0.445042
      vertex 4.48172 -1.94986 0.445042
    endloop
  endfacet
  facet normal 9.22345e-09 -0.974928 -0.222521
    outer loop
      vertex 4.58057 -1.62564 -0.975451
      vertex 5.5 -1.94986 0.445042
      vertex 4.53064 -1.87665 0.12431
    endloop
  endfacet
  facet normal -0 -0.974928 -0.222521
    outer loop
      vertex 5.5 -1.56366 -1.24698
      vertex 4.58057 -1.62564 -0.975451
      vertex 4.48042 -1.56366 -1.24698
    endloop
  endfacet
  facet normal -3.32046e-08 -0.974928 -0.222521
    outer loop
      vertex 4.58057 -1.62564 -0.975451
      vertex 5.5 -1.56366 -1.24698
      vertex 5.5 -1.94986 0.445042
    endloop
  endfacet
  facet normal 0 -0.433884 -0.900969
    outer loop
      vertex 4.48042 -1.56366 -1.24698
      vertex 4.48012 -1.03208 -1.50297
      vertex 5.5 -1.56366 -1.24698
    endloop
  endfacet
  facet normal 2.63874e-07 -0.433884 -0.900969
    outer loop
      vertex 4.48012 -1.03208 -1.50297
      vertex 5.5 0 -2
      vertex 5.5 -1.56366 -1.24698
    endloop
  endfacet
  facet normal 3.15753e-07 -0.433884 -0.900969
    outer loop
      vertex 5.5 0 -2
      vertex 4.48012 -1.03208 -1.50297
      vertex 4.47954 0 -2
    endloop
  endfacet
endsolid OpenSCAD_Model
